<svg width="30" height="30" viewBox="0 0 30 30" fill="none" xmlns="http://www.w3.org/2000/svg">
<g opacity="0.6">
<path fill-rule="evenodd" clip-rule="evenodd" d="M13.6175 11.1127C10.7713 8.64134 8.46503 5.69828 6.73197 2.2694C6.38536 1.58644 5.57885 1.32593 4.92562 1.69205C4.27906 2.05817 4.03239 2.91013 4.379 3.60013C6.28536 7.35288 8.805 10.5776 11.9245 13.2883C12.4911 13.7811 13.3376 13.6966 13.8042 13.0982C14.2708 12.4927 14.1841 11.6055 13.6175 11.1127Z" fill="#FFE852"/>
<path fill-rule="evenodd" clip-rule="evenodd" d="M12.0998 1.48786C12.2464 4.33235 12.3798 7.17683 12.5464 10.0213C12.5931 10.7958 13.2263 11.3872 13.9595 11.338C14.6927 11.2887 15.2527 10.6198 15.206 9.8453C15.0394 7.00785 14.906 4.17042 14.7594 1.32593C14.7194 0.553556 14.0862 -0.0413963 13.3529 0.00225675C12.6197 0.0459098 12.0531 0.711257 12.0998 1.48786Z" fill="#FFE852"/>
<path fill-rule="evenodd" clip-rule="evenodd" d="M21.9954 2.06515C20.289 4.7829 18.3561 7.2894 16.4097 9.82409C15.9431 10.4296 16.0297 11.3168 16.603 11.8026C17.1762 12.2955 18.0161 12.2039 18.476 11.5984C20.4757 9.00033 22.4621 6.41634 24.2218 3.62114C24.6284 2.97338 24.455 2.10035 23.8418 1.67086C23.2352 1.24137 22.402 1.41739 21.9954 2.06515Z" fill="#FFE852"/>
<path fill-rule="evenodd" clip-rule="evenodd" d="M28.6056 12.1688C23.9797 12.3871 19.0671 12.3941 14.4412 12.0843C13.708 12.0421 13.0748 12.6265 13.0281 13.408C12.9814 14.1825 13.5414 14.8513 14.2746 14.9006C18.9938 15.2104 24.0064 15.2034 28.7256 14.9851C29.4588 14.9499 30.032 14.2881 29.9987 13.5136C29.9654 12.7391 29.3388 12.1336 28.6056 12.1688Z" fill="#FFE852"/>
<path fill-rule="evenodd" clip-rule="evenodd" d="M11.9209 13.0629C14.7738 16.7523 17.7267 20.3713 20.3729 24.2297C20.8062 24.8563 21.6394 24.9971 22.2393 24.5394C22.8326 24.0818 22.9658 23.2016 22.5326 22.575C19.853 18.6744 16.8669 15.0132 13.9807 11.2815C13.5141 10.6831 12.6742 10.5916 12.1076 11.0844C11.5343 11.5773 11.4543 12.4644 11.9209 13.0629Z" fill="#FFE852"/>
<path fill-rule="evenodd" clip-rule="evenodd" d="M12.785 14.1335C13.5316 17.9778 13.7382 21.6531 13.7915 25.5467C13.7982 26.3212 14.4048 26.9408 15.138 26.9337C15.8779 26.9196 16.4644 26.2859 16.4511 25.5044C16.3978 21.4278 16.1778 17.5906 15.398 13.5632C15.2447 12.8028 14.5448 12.3099 13.8182 12.4719C13.0983 12.6267 12.6317 13.3731 12.785 14.1335Z" fill="#FFE852"/>
<path fill-rule="evenodd" clip-rule="evenodd" d="M12.9054 13.8237C10.7457 18.3862 9.63256 23.4556 7.3196 27.9195C6.96632 28.5954 7.20623 29.4543 7.8528 29.8275C8.49936 30.2007 9.30595 29.9472 9.65923 29.2712C11.9855 24.7792 13.112 19.6817 15.2916 15.084C15.6182 14.387 15.3516 13.5421 14.6984 13.19C14.0385 12.845 13.2387 13.1267 12.9054 13.8237Z" fill="#FFE852"/>
<path fill-rule="evenodd" clip-rule="evenodd" d="M14.0938 12.7884C9.79453 13.591 5.50188 13.9571 1.17591 14.4993C0.442696 14.5908 -0.07722 15.2879 0.00943276 16.0624C0.0960855 16.8369 0.756041 17.386 1.48926 17.2945C5.86189 16.7524 10.2078 16.3722 14.5605 15.5625C15.2804 15.4216 15.7669 14.6894 15.6403 13.929C15.507 13.1615 14.8204 12.6476 14.0938 12.7884Z" fill="#FFE852"/>
<path fill-rule="evenodd" clip-rule="evenodd" d="M17.0855 10.6484C16.199 10.6062 15.3591 10.5428 14.4926 10.409C13.7594 10.2964 13.0862 10.8315 12.9795 11.5989C12.8729 12.3664 13.3794 13.0845 14.106 13.1972C15.0658 13.3451 15.9923 13.4155 16.9655 13.4577C17.6987 13.4929 18.3253 12.8944 18.3519 12.1129C18.3853 11.3384 17.8188 10.6836 17.0855 10.6484Z" fill="#FFE852"/>
</g>
</svg>
