<svg width="74" height="65" viewBox="0 0 74 65" fill="none" xmlns="http://www.w3.org/2000/svg">
<path opacity="0.6" d="M29.7791 29.248C27.1351 29.9564 22.9649 -3.64019 12.6719 3.03755C2.88555 9.38655 24.6392 30.6252 22.1209 31.3C19.6025 31.9748 1.61154 35.2369 2.56156 43.4696C3.62256 52.6641 25.3539 41.5356 26.3448 42.4859C27.3358 43.4362 21.1946 59.4779 28.4539 61.9371C35.9746 64.4847 39.9009 46.5521 41.2968 46.1781C42.6928 45.804 56.821 69.6723 60.7758 60.975C63.9898 53.9068 49.1768 44.0667 51.4292 43.4631C53.6817 42.8596 70.837 39.6657 71.2169 30.4625C71.6812 19.215 44.6663 34.3964 42.3674 32.8037C40.0685 31.2109 51.3616 10.4555 41.9985 8.26708C32.7536 6.10629 32.4231 28.5395 29.7791 29.248Z" stroke="white" stroke-width="4" stroke-linecap="round"/>
</svg>
