<svg width="616" height="295" viewBox="0 0 616 295" fill="none" xmlns="http://www.w3.org/2000/svg">
<g opacity="0.3">
<path d="M585.265 14.4575V1.00001" stroke="#636F7D" stroke-miterlimit="10" stroke-linecap="round" stroke-linejoin="round"/>
<path d="M581.679 6.17572H588.85" stroke="#636F7D" stroke-miterlimit="10" stroke-linecap="round" stroke-linejoin="round"/>
<path d="M568.15 273.253H616V267.789H568.15V273.253Z" fill="#636F7D"/>
<path d="M605.737 185.411C605.737 215.41 581.36 239.727 551.292 239.727C521.221 239.727 496.845 215.41 496.845 185.411C496.845 155.412 521.221 131.093 551.292 131.093C581.36 131.093 605.737 155.412 605.737 185.411Z" stroke="#636F7D" stroke-miterlimit="10" stroke-linecap="round" stroke-linejoin="round"/>
<path d="M596.178 185.411C596.178 210.141 576.081 230.191 551.292 230.191C526.501 230.191 506.406 210.141 506.406 185.411C506.406 160.679 526.501 140.632 551.292 140.632C576.081 140.632 596.178 160.679 596.178 185.411Z" stroke="#636F7D" stroke-miterlimit="10" stroke-linecap="round" stroke-linejoin="round"/>
<path d="M572.079 185.411C572.079 196.863 562.772 206.149 551.292 206.149C539.811 206.149 530.503 196.863 530.503 185.411C530.503 173.957 539.811 164.672 551.292 164.672C562.772 164.672 572.079 173.957 572.079 185.411Z" stroke="#636F7D" stroke-miterlimit="10" stroke-linecap="round" stroke-linejoin="round"/>
<path d="M558.046 185.411C558.046 189.132 555.022 192.152 551.292 192.152C547.56 192.152 544.536 189.132 544.536 185.411C544.536 181.688 547.56 178.671 551.292 178.671C555.022 178.671 558.046 181.688 558.046 185.411Z" fill="#636F7D"/>
<path d="M551.292 131.093V239.727" stroke="#636F7D" stroke-miterlimit="10" stroke-linecap="round" stroke-linejoin="round"/>
<path d="M537.2 132.944L565.384 237.876" stroke="#636F7D" stroke-miterlimit="10" stroke-linecap="round" stroke-linejoin="round"/>
<path d="M524.069 138.37L578.515 232.451" stroke="#636F7D" stroke-miterlimit="10" stroke-linecap="round" stroke-linejoin="round"/>
<path d="M512.792 147.003L589.791 223.818" stroke="#636F7D" stroke-miterlimit="10" stroke-linecap="round" stroke-linejoin="round"/>
<path d="M504.138 158.252L598.444 212.569" stroke="#636F7D" stroke-miterlimit="10" stroke-linecap="round" stroke-linejoin="round"/>
<path d="M498.7 171.352L603.882 199.469" stroke="#636F7D" stroke-miterlimit="10" stroke-linecap="round" stroke-linejoin="round"/>
<path d="M496.845 185.412H605.737" stroke="#636F7D" stroke-miterlimit="10" stroke-linecap="round" stroke-linejoin="round"/>
<path d="M498.7 199.47L603.882 171.352" stroke="#636F7D" stroke-miterlimit="10" stroke-linecap="round" stroke-linejoin="round"/>
<path d="M504.138 212.57L598.444 158.252" stroke="#636F7D" stroke-miterlimit="10" stroke-linecap="round" stroke-linejoin="round"/>
<path d="M512.792 223.819L589.791 147.003" stroke="#636F7D" stroke-miterlimit="10" stroke-linecap="round" stroke-linejoin="round"/>
<path d="M524.069 232.452L578.515 138.37" stroke="#636F7D" stroke-miterlimit="10" stroke-linecap="round" stroke-linejoin="round"/>
<path d="M537.2 237.877L565.384 132.944" stroke="#636F7D" stroke-miterlimit="10" stroke-linecap="round" stroke-linejoin="round"/>
<path d="M558.969 128.51C557.745 131.541 554.769 133.677 551.292 133.677C547.816 133.677 544.839 131.541 543.613 128.51H558.969Z" fill="#636F7D"/>
<path d="M531.745 136.119C530.522 139.149 527.546 141.286 524.069 141.286C520.594 141.286 517.616 139.149 516.391 136.119H531.745Z" fill="#636F7D"/>
<path d="M512.792 155.669C511.569 158.7 508.592 160.836 505.113 160.836C501.64 160.836 498.662 158.7 497.436 155.669H512.792Z" fill="#636F7D"/>
<path d="M504.522 182.827C503.3 185.86 500.321 187.995 496.845 187.995C493.371 187.995 490.393 185.86 489.167 182.827H504.522Z" fill="#636F7D"/>
<path d="M511.817 210.514C510.594 213.544 507.616 215.681 504.138 215.681C500.665 215.681 497.687 213.544 496.461 210.514H511.817Z" fill="#636F7D"/>
<path d="M531.745 229.868C530.522 232.899 527.546 235.033 524.069 235.033C520.594 235.033 517.616 232.899 516.391 229.868H531.745Z" fill="#636F7D"/>
<path d="M570.837 136.119C572.06 139.149 575.037 141.286 578.515 141.286C581.99 141.286 584.967 139.149 586.192 136.119H570.837Z" fill="#636F7D"/>
<path d="M589.791 155.669C591.014 158.7 593.99 160.836 597.469 160.836C600.942 160.836 603.92 158.7 605.146 155.669H589.791Z" fill="#636F7D"/>
<path d="M598.06 182.827C599.283 185.86 602.26 187.995 605.737 187.995C609.212 187.995 612.19 185.86 613.416 182.827H598.06Z" fill="#636F7D"/>
<path d="M590.766 210.514C591.99 213.544 594.966 215.681 598.444 215.681C601.918 215.681 604.896 213.544 606.122 210.514H590.766Z" fill="#636F7D"/>
<path d="M570.837 229.868C572.06 232.899 575.037 235.033 578.515 235.033C581.99 235.033 584.967 232.899 586.192 229.868H570.837Z" fill="#636F7D"/>
<path d="M558.969 237.449C557.745 240.48 554.769 242.615 551.292 242.615C547.816 242.615 544.839 240.48 543.613 237.449H558.969Z" fill="#636F7D"/>
<path d="M596.178 260.379V268.292H572.995V260.379H576.49L551.032 185.411L589.184 260.379H596.178Z" fill="#636F7D"/>
<path d="M505.886 260.379V268.292H529.069V260.379H525.572L551.032 185.411L512.88 260.379H505.886Z" fill="#636F7D"/>
<path d="M607.348 91.6232V128.323H603.952V267.786H566.598V128.323H563.203V91.6232H568.953V80.3306L577.602 61.6069H578.009V47.8759H576.31V45.3236H578.009L584.052 14.4498H586.477L592.522 45.3236H594.22V47.8759H592.522V61.6069H592.928L601.578 80.3306V91.6232H607.348Z" fill="white"/>
<path d="M603.944 159.661H566.588V154.985H603.944V159.661Z" stroke="#636F7D" stroke-miterlimit="10" stroke-linecap="round" stroke-linejoin="round"/>
<path d="M603.944 186.48H566.588V181.804H603.944V186.48Z" stroke="#636F7D" stroke-miterlimit="10" stroke-linecap="round" stroke-linejoin="round"/>
<path d="M603.944 240.402H566.588V235.726H603.944V240.402Z" stroke="#636F7D" stroke-miterlimit="10" stroke-linecap="round" stroke-linejoin="round"/>
<path d="M603.944 218.099H566.588V208.623H603.944V218.099Z" stroke="#636F7D" stroke-miterlimit="10" stroke-linecap="round" stroke-linejoin="round"/>
<path d="M599.131 128.323H571.398V91.6231H599.131V128.323Z" stroke="#636F7D" stroke-miterlimit="10" stroke-linecap="round" stroke-linejoin="round"/>
<path d="M599.131 267.786H571.398V128.323H599.131V267.786Z" stroke="#636F7D" stroke-miterlimit="10" stroke-linecap="round" stroke-linejoin="round"/>
<path d="M574.228 131.712V259.317" stroke="#636F7D" stroke-miterlimit="10" stroke-linecap="round" stroke-linejoin="round"/>
<path d="M577.907 131.712V259.317" stroke="#636F7D" stroke-miterlimit="10" stroke-linecap="round" stroke-linejoin="round"/>
<path d="M581.586 131.712V259.317" stroke="#636F7D" stroke-miterlimit="10" stroke-linecap="round" stroke-linejoin="round"/>
<path d="M585.265 131.712V259.317" stroke="#636F7D" stroke-miterlimit="10" stroke-linecap="round" stroke-linejoin="round"/>
<path d="M588.945 131.712V259.317" stroke="#636F7D" stroke-miterlimit="10" stroke-linecap="round" stroke-linejoin="round"/>
<path d="M592.624 131.712V259.317" stroke="#636F7D" stroke-miterlimit="10" stroke-linecap="round" stroke-linejoin="round"/>
<path d="M596.303 131.712V259.317" stroke="#636F7D" stroke-miterlimit="10" stroke-linecap="round" stroke-linejoin="round"/>
<path d="M599.131 120.512H571.398V91.6232H599.131V120.512Z" stroke="#636F7D" stroke-miterlimit="10" stroke-linecap="round" stroke-linejoin="round"/>
<path d="M597.16 118.459H573.368V95.1996H597.16V118.459Z" stroke="#636F7D" stroke-miterlimit="10" stroke-linecap="round" stroke-linejoin="round"/>
<path d="M596.303 106.83C596.303 112.912 591.359 117.841 585.265 117.841C579.17 117.841 574.228 112.912 574.228 106.83C574.228 100.749 579.17 95.8205 585.265 95.8205C591.359 95.8205 596.303 100.749 596.303 106.83Z" stroke="#636F7D" stroke-miterlimit="10" stroke-linecap="round" stroke-linejoin="round"/>
<path d="M580.831 106.83H585.265" stroke="#636F7D" stroke-miterlimit="10" stroke-linecap="round" stroke-linejoin="round"/>
<path d="M585.265 101.71V106.83" stroke="#636F7D" stroke-miterlimit="10" stroke-linecap="round" stroke-linejoin="round"/>
<path d="M586.862 83.8087V89.7484H584.416V83.8087C584.416 83.1312 584.96 82.589 585.637 82.589C586.318 82.589 586.862 83.1312 586.862 83.8087Z" fill="#636F7D"/>
<path d="M586.862 52.375V58.3138H584.416V52.375C584.416 51.6975 584.96 51.1553 585.637 51.1553C586.318 51.1553 586.862 51.6975 586.862 52.375Z" fill="#636F7D"/>
<path d="M590.304 52.375V58.3138H587.859V52.375C587.859 51.6975 588.403 51.1553 589.082 51.1553C589.76 51.1553 590.304 51.6975 590.304 52.375Z" fill="#636F7D"/>
<path d="M580.972 52.375V58.3138H583.417V52.375C583.417 51.6975 582.875 51.1553 582.194 51.1553C581.515 51.1553 580.972 51.6975 580.972 52.375Z" fill="#636F7D"/>
<path d="M583.418 83.8087V89.7484H580.974V83.8087C580.974 83.1312 581.517 82.589 582.196 82.589C582.875 82.589 583.418 83.1312 583.418 83.8087Z" fill="#636F7D"/>
<path d="M579.977 83.8087V89.7484H577.531V83.8087C577.531 83.1312 578.075 82.589 578.753 82.589C579.432 82.589 579.977 83.1312 579.977 83.8087Z" fill="#636F7D"/>
<path d="M576.534 83.8087V89.7484H574.089V83.8087C574.089 83.1312 574.633 82.589 575.313 82.589C575.99 82.589 576.534 83.1312 576.534 83.8087Z" fill="#636F7D"/>
<path d="M587.857 83.8087V89.7484H590.302V83.8087C590.302 83.1312 589.757 82.589 589.082 82.589C588.401 82.589 587.857 83.1312 587.857 83.8087Z" fill="#636F7D"/>
<path d="M591.302 83.8087V89.7484H593.746V83.8087C593.746 83.1312 593.204 82.589 592.522 82.589C591.845 82.589 591.302 83.1312 591.302 83.8087Z" fill="#636F7D"/>
<path d="M594.741 83.8087V89.7484H597.187V83.8087C597.187 83.1312 596.643 82.589 595.966 82.589C595.286 82.589 594.741 83.1312 594.741 83.8087Z" fill="#636F7D"/>
<path d="M603.944 267.786H566.588V128.323H603.944V267.786Z" stroke="#636F7D" stroke-miterlimit="10" stroke-linecap="round" stroke-linejoin="round"/>
<path d="M607.339 128.323H563.192V91.6231H607.339V128.323Z" stroke="#636F7D" stroke-miterlimit="10" stroke-linecap="round" stroke-linejoin="round"/>
<path d="M601.584 91.6231H568.945V80.3305H601.584V91.6231Z" stroke="#636F7D" stroke-miterlimit="10" stroke-linecap="round" stroke-linejoin="round"/>
<path d="M592.522 61.604H578.008V47.8642H592.522V61.604Z" stroke="#636F7D" stroke-miterlimit="10" stroke-linecap="round" stroke-linejoin="round"/>
<path d="M592.522 45.3235H578.008L584.056 14.4575H586.473L592.522 45.3235Z" stroke="#636F7D" stroke-miterlimit="10" stroke-linecap="round" stroke-linejoin="round"/>
<path d="M594.227 47.8642H576.302V45.3236H594.227V47.8642Z" stroke="#636F7D" stroke-miterlimit="10" stroke-linecap="round" stroke-linejoin="round"/>
<path d="M601.584 80.3306H568.945L577.597 61.604H592.932L601.584 80.3306Z" stroke="#636F7D" stroke-miterlimit="10" stroke-linecap="round" stroke-linejoin="round"/>
<path d="M566.083 82.5888V91.6231" stroke="#636F7D" stroke-miterlimit="10" stroke-linecap="round" stroke-linejoin="round"/>
<path d="M605.194 82.5888V91.6231" stroke="#636F7D" stroke-miterlimit="10" stroke-linecap="round" stroke-linejoin="round"/>
<path d="M229.298 256.501V294.281H179.639V256.501H188.927V189.788H187.377V163.834L189.771 148.151H190.828L192.429 158.673H197.294L202.904 138.97H206.034L211.642 158.673H216.509L218.109 148.151H219.166L221.56 163.834V189.788H220.009V256.501H229.298Z" fill="white"/>
<path d="M206.731 239.257V249.949H202.207V239.257C202.207 238.011 203.223 236.999 204.466 236.999C205.717 236.999 206.731 238.011 206.731 239.257Z" fill="#636F7D"/>
<path d="M205.889 221.091V227.81H203.049V221.091C203.049 220.308 203.686 219.672 204.467 219.672C205.253 219.672 205.889 220.308 205.889 221.091Z" fill="#636F7D"/>
<path d="M212.678 221.091V227.81H209.836V221.091C209.836 220.308 210.473 219.672 211.255 219.672C212.041 219.672 212.678 220.308 212.678 221.091Z" fill="#636F7D"/>
<path d="M199.102 221.091V227.81H196.26V221.091C196.26 220.308 196.898 219.672 197.679 219.672C198.465 219.672 199.102 220.308 199.102 221.091Z" fill="#636F7D"/>
<path d="M205.889 202.081V208.798H203.049V202.081C203.049 201.296 203.686 200.66 204.467 200.66C205.253 200.66 205.889 201.296 205.889 202.081Z" fill="#636F7D"/>
<path d="M205.889 167.732V171.585H203.049V167.732C203.049 166.948 203.686 166.311 204.467 166.311C205.253 166.311 205.889 166.948 205.889 167.732Z" fill="#636F7D"/>
<path d="M212.678 202.081V208.798H209.836V202.081C209.836 201.296 210.473 200.66 211.255 200.66C212.041 200.66 212.678 201.296 212.678 202.081Z" fill="#636F7D"/>
<path d="M199.102 202.081V208.798H196.26V202.081C196.26 201.296 196.898 200.66 197.679 200.66C198.465 200.66 199.102 201.296 199.102 202.081Z" fill="#636F7D"/>
<path d="M198.485 239.276H196.936V236.364H198.485V239.276Z" fill="#636F7D"/>
<path d="M198.485 244.116H196.936V241.206H198.485V244.116Z" fill="#636F7D"/>
<path d="M205.244 235.474H203.694V233.572H205.244V235.474Z" fill="#636F7D"/>
<path d="M198.485 248.956H196.936V246.047H198.485V248.956Z" fill="#636F7D"/>
<path d="M212.032 239.276H210.483V236.364H212.032V239.276Z" fill="#636F7D"/>
<path d="M212.032 244.116H210.483V241.206H212.032V244.116Z" fill="#636F7D"/>
<path d="M212.032 248.956H210.483V246.047H212.032V248.956Z" fill="#636F7D"/>
<path d="M221.558 176.753H187.38V175.206H221.558V176.753Z" stroke="#636F7D" stroke-miterlimit="10" stroke-linecap="round" stroke-linejoin="round"/>
<path d="M193.216 163.834V256.501" stroke="#636F7D" stroke-miterlimit="10" stroke-linecap="round" stroke-linejoin="round"/>
<path d="M216.08 163.834V256.501" stroke="#636F7D" stroke-miterlimit="10" stroke-linecap="round" stroke-linejoin="round"/>
<path d="M207.863 184.204H201.075V177.847H207.863V184.204Z" fill="#636F7D"/>
<path d="M198.693 184.204H195.825V177.847H198.693V184.204Z" fill="#636F7D"/>
<path d="M213.115 184.204H210.245V177.847H213.115V184.204Z" fill="#636F7D"/>
<path d="M207.863 187.472H201.075V185.334H207.863V187.472Z" fill="#636F7D"/>
<path d="M198.693 187.472H195.825V185.334H198.693V187.472Z" fill="#636F7D"/>
<path d="M213.115 187.472H210.245V185.334H213.115V187.472Z" fill="#636F7D"/>
<path d="M210.242 163.834V175.204C210.242 175.204 204.647 175.204 204.469 175.204C204.29 175.204 198.695 175.204 198.695 175.204V163.834L204.469 155.993L210.242 163.834Z" stroke="#636F7D" stroke-miterlimit="10" stroke-linecap="round" stroke-linejoin="round"/>
<path d="M190.514 141.559H190.081V148.151H190.514V141.559Z" fill="#636F7D"/>
<path d="M192.211 143.957V143.525H188.384V143.957H192.211Z" fill="#636F7D"/>
<path d="M204.685 132.377H204.253V138.97H204.685V132.377Z" fill="#636F7D"/>
<path d="M206.382 134.776V134.344H202.556V134.776H206.382Z" fill="#636F7D"/>
<path d="M218.857 141.559H218.426V148.151H218.857V141.559Z" fill="#636F7D"/>
<path d="M220.555 143.957V143.525H216.728V143.957H220.555Z" fill="#636F7D"/>
<path d="M192.429 158.67H197.294" stroke="#636F7D" stroke-miterlimit="10" stroke-linecap="round" stroke-linejoin="round"/>
<path d="M211.65 158.67H216.516" stroke="#636F7D" stroke-miterlimit="10" stroke-linecap="round" stroke-linejoin="round"/>
<path d="M179.639 256.501H229.299V294.281H179.639V256.501Z" stroke="#636F7D" stroke-miterlimit="10" stroke-linecap="round" stroke-linejoin="round"/>
<path d="M188.928 231.731H220.01V256.501H188.928V231.731Z" stroke="#636F7D" stroke-miterlimit="10" stroke-linecap="round" stroke-linejoin="round"/>
<path d="M188.928 227.81H220.01V231.731H188.928V227.81Z" stroke="#636F7D" stroke-miterlimit="10" stroke-linecap="round" stroke-linejoin="round"/>
<path d="M188.928 212.663H220.01V227.81H188.928V212.663Z" stroke="#636F7D" stroke-miterlimit="10" stroke-linecap="round" stroke-linejoin="round"/>
<path d="M188.928 208.798H220.01V212.606H188.928V208.798Z" stroke="#636F7D" stroke-miterlimit="10" stroke-linecap="round" stroke-linejoin="round"/>
<path d="M188.928 193.651H220.01V208.798H188.928V193.651Z" stroke="#636F7D" stroke-miterlimit="10" stroke-linecap="round" stroke-linejoin="round"/>
<path d="M188.928 189.786H220.01V193.594H188.928V189.786Z" stroke="#636F7D" stroke-miterlimit="10" stroke-linecap="round" stroke-linejoin="round"/>
<path d="M221.561 163.834V189.788H187.378V163.834H198.695V175.204C198.695 175.204 204.29 175.204 204.469 175.204C204.647 175.204 210.242 175.204 210.242 175.204V163.834H221.561Z" stroke="#636F7D" stroke-miterlimit="10" stroke-linecap="round" stroke-linejoin="round"/>
<path d="M190.826 148.151H189.768L187.38 163.834H193.216L190.826 148.151Z" stroke="#636F7D" stroke-miterlimit="10" stroke-linecap="round" stroke-linejoin="round"/>
<path d="M219.169 148.151H218.112L215.724 163.834H221.558L219.169 148.151Z" stroke="#636F7D" stroke-miterlimit="10" stroke-linecap="round" stroke-linejoin="round"/>
<path d="M213.115 163.834H210.242L204.469 155.993L198.695 163.834H195.824L202.904 138.97H206.034L213.115 163.834Z" stroke="#636F7D" stroke-miterlimit="10" stroke-linecap="round" stroke-linejoin="round"/>
<path d="M339.851 267.786V272.297C321.573 271.121 303.137 270.522 284.567 270.522C265.997 270.522 247.569 271.121 229.298 272.297V267.786H339.851Z" fill="#636F7D"/>
<path d="M229.298 265.65H339.85V263.986H229.298V265.65Z" fill="#636F7D"/>
<path d="M22.4946 267.789H179.639V263.986H22.4946V267.789Z" stroke="#636F7D" stroke-miterlimit="10" stroke-linecap="round" stroke-linejoin="round"/>
<path d="M22.4947 273.253H179.639V267.789H22.4947V273.253Z" fill="#636F7D"/>
<path d="M104.907 260.154C104.907 262.273 103.188 263.986 101.067 263.986C98.9456 263.986 97.2263 262.273 97.2263 260.154C97.2263 258.038 98.9456 256.323 101.067 256.323C103.188 256.323 104.907 258.038 104.907 260.154Z" fill="#636F7D"/>
<path d="M188.928 191.691C188.928 191.691 166.354 239.275 102.085 256.501" stroke="#636F7D" stroke-miterlimit="10" stroke-linecap="round" stroke-linejoin="round"/>
<path d="M21.0651 239.215C21.0651 239.215 49.6445 260.449 99.0968 257.049" stroke="#636F7D" stroke-miterlimit="10" stroke-linecap="round" stroke-linejoin="round"/>
<path d="M174.26 212.606V267.789" stroke="#636F7D" stroke-miterlimit="10" stroke-linecap="round" stroke-linejoin="round"/>
<path d="M163.912 267.786V223.155" stroke="#636F7D" stroke-miterlimit="10" stroke-linecap="round" stroke-linejoin="round"/>
<path d="M153.566 267.786V231.738" stroke="#636F7D" stroke-miterlimit="10" stroke-linecap="round" stroke-linejoin="round"/>
<path d="M143.219 267.786V238.824" stroke="#636F7D" stroke-miterlimit="10" stroke-linecap="round" stroke-linejoin="round"/>
<path d="M132.873 267.786V244.689" stroke="#636F7D" stroke-miterlimit="10" stroke-linecap="round" stroke-linejoin="round"/>
<path d="M122.52 267.786V249.522" stroke="#636F7D" stroke-miterlimit="10" stroke-linecap="round" stroke-linejoin="round"/>
<path d="M112.173 267.786V253.444" stroke="#636F7D" stroke-miterlimit="10" stroke-linecap="round" stroke-linejoin="round"/>
<path d="M27.8728 267.786V243.343" stroke="#636F7D" stroke-miterlimit="10" stroke-linecap="round" stroke-linejoin="round"/>
<path d="M38.2197 267.786V248.133" stroke="#636F7D" stroke-miterlimit="10" stroke-linecap="round" stroke-linejoin="round"/>
<path d="M48.5655 267.786V251.747" stroke="#636F7D" stroke-miterlimit="10" stroke-linecap="round" stroke-linejoin="round"/>
<path d="M58.9122 267.786V254.385" stroke="#636F7D" stroke-miterlimit="10" stroke-linecap="round" stroke-linejoin="round"/>
<path d="M69.2589 267.786V256.159" stroke="#636F7D" stroke-miterlimit="10" stroke-linecap="round" stroke-linejoin="round"/>
<path d="M79.6114 267.786V257.157" stroke="#636F7D" stroke-miterlimit="10" stroke-linecap="round" stroke-linejoin="round"/>
<path d="M89.9581 267.786V257.407" stroke="#636F7D" stroke-miterlimit="10" stroke-linecap="round" stroke-linejoin="round"/>
<path d="M22.4926 256.145V294.28H1V256.145H2.42848V235.708H2.85001L5.8865 232.265H17.6051L20.6416 235.708H21.0641V256.145H22.4926Z" fill="white"/>
<path d="M1 256.145H22.4945V294.28H1V256.145Z" stroke="#636F7D" stroke-miterlimit="10" stroke-linecap="round" stroke-linejoin="round"/>
<path d="M2.42858 235.711H21.0652V256.145H2.42858V235.711Z" stroke="#636F7D" stroke-miterlimit="10" stroke-linecap="round" stroke-linejoin="round"/>
<path d="M5.88952 232.265H17.6052L21.0652 235.711H2.42858L5.88952 232.265Z" stroke="#636F7D" stroke-miterlimit="10" stroke-linecap="round" stroke-linejoin="round"/>
<path d="M339.85 256.501V294.281H389.511V256.501H380.221V189.788H381.772V163.834L379.378 148.151H378.321L376.721 158.673H371.854L366.245 138.97H363.116L357.506 158.673H352.64L351.04 148.151H349.982L347.589 163.834V189.788H349.139V256.501H339.85Z" fill="white"/>
<path d="M362.418 239.257V249.949H366.941V239.257C366.941 238.011 365.927 236.999 364.684 236.999C363.433 236.999 362.418 238.011 362.418 239.257Z" fill="#636F7D"/>
<path d="M363.26 221.091V227.81H366.101V221.091C366.101 220.308 365.464 219.672 364.682 219.672C363.897 219.672 363.26 220.308 363.26 221.091Z" fill="#636F7D"/>
<path d="M356.472 221.091V227.81H359.313V221.091C359.313 220.308 358.675 219.672 357.895 219.672C357.108 219.672 356.472 220.308 356.472 221.091Z" fill="#636F7D"/>
<path d="M370.048 221.091V227.81H372.889V221.091C372.889 220.308 372.252 219.672 371.47 219.672C370.684 219.672 370.048 220.308 370.048 221.091Z" fill="#636F7D"/>
<path d="M363.26 202.081V208.798H366.101V202.081C366.101 201.296 365.464 200.66 364.682 200.66C363.897 200.66 363.26 201.296 363.26 202.081Z" fill="#636F7D"/>
<path d="M363.26 167.732V171.585H366.101V167.732C366.101 166.948 365.464 166.311 364.682 166.311C363.897 166.311 363.26 166.948 363.26 167.732Z" fill="#636F7D"/>
<path d="M356.472 202.081V208.798H359.313V202.081C359.313 201.296 358.675 200.66 357.895 200.66C357.108 200.66 356.472 201.296 356.472 202.081Z" fill="#636F7D"/>
<path d="M370.048 202.081V208.798H372.889V202.081C372.889 201.296 372.252 200.66 371.47 200.66C370.684 200.66 370.048 201.296 370.048 202.081Z" fill="#636F7D"/>
<path d="M370.664 239.276H372.213V236.364H370.664V239.276Z" fill="#636F7D"/>
<path d="M370.664 244.116H372.213V241.206H370.664V244.116Z" fill="#636F7D"/>
<path d="M363.906 235.474H365.455V233.572H363.906V235.474Z" fill="#636F7D"/>
<path d="M370.664 248.956H372.213V246.047H370.664V248.956Z" fill="#636F7D"/>
<path d="M357.117 239.276H358.666V236.364H357.117V239.276Z" fill="#636F7D"/>
<path d="M357.117 244.116H358.666V241.206H357.117V244.116Z" fill="#636F7D"/>
<path d="M357.117 248.956H358.666V246.047H357.117V248.956Z" fill="#636F7D"/>
<path d="M347.591 176.753H381.769V175.206H347.591V176.753Z" stroke="#636F7D" stroke-miterlimit="10" stroke-linecap="round" stroke-linejoin="round"/>
<path d="M375.934 163.834V256.501" stroke="#636F7D" stroke-miterlimit="10" stroke-linecap="round" stroke-linejoin="round"/>
<path d="M353.069 163.834V256.501" stroke="#636F7D" stroke-miterlimit="10" stroke-linecap="round" stroke-linejoin="round"/>
<path d="M361.286 184.204H368.074V177.847H361.286V184.204Z" fill="#636F7D"/>
<path d="M370.456 184.204H373.324V177.847H370.456V184.204Z" fill="#636F7D"/>
<path d="M356.035 184.204H358.904V177.847H356.035V184.204Z" fill="#636F7D"/>
<path d="M361.286 187.472H368.074V185.334H361.286V187.472Z" fill="#636F7D"/>
<path d="M370.456 187.472H373.324V185.334H370.456V187.472Z" fill="#636F7D"/>
<path d="M356.035 187.472H358.904V185.334H356.035V187.472Z" fill="#636F7D"/>
<path d="M358.907 163.834V175.204C358.907 175.204 364.502 175.204 364.68 175.204C364.859 175.204 370.454 175.204 370.454 175.204V163.834L364.68 155.993L358.907 163.834Z" stroke="#636F7D" stroke-miterlimit="10" stroke-linecap="round" stroke-linejoin="round"/>
<path d="M378.635 141.559H379.068V148.151H378.635V141.559Z" fill="#636F7D"/>
<path d="M350.292 141.559H350.724V148.151H350.292V141.559Z" fill="#636F7D"/>
<path d="M376.721 158.67H371.854" stroke="#636F7D" stroke-miterlimit="10" stroke-linecap="round" stroke-linejoin="round"/>
<path d="M357.499 158.67H352.634" stroke="#636F7D" stroke-miterlimit="10" stroke-linecap="round" stroke-linejoin="round"/>
<path d="M389.51 256.501H339.849V294.281H389.51V256.501Z" stroke="#636F7D" stroke-miterlimit="10" stroke-linecap="round" stroke-linejoin="round"/>
<path d="M380.221 231.731H349.139V256.501H380.221V231.731Z" stroke="#636F7D" stroke-miterlimit="10" stroke-linecap="round" stroke-linejoin="round"/>
<path d="M380.221 227.81H349.139V231.731H380.221V227.81Z" stroke="#636F7D" stroke-miterlimit="10" stroke-linecap="round" stroke-linejoin="round"/>
<path d="M380.221 212.663H349.139V227.81H380.221V212.663Z" stroke="#636F7D" stroke-miterlimit="10" stroke-linecap="round" stroke-linejoin="round"/>
<path d="M380.221 208.798H349.139V212.606H380.221V208.798Z" stroke="#636F7D" stroke-miterlimit="10" stroke-linecap="round" stroke-linejoin="round"/>
<path d="M380.221 193.651H349.139V208.798H380.221V193.651Z" stroke="#636F7D" stroke-miterlimit="10" stroke-linecap="round" stroke-linejoin="round"/>
<path d="M380.221 189.786H349.139V193.594H380.221V189.786Z" stroke="#636F7D" stroke-miterlimit="10" stroke-linecap="round" stroke-linejoin="round"/>
<path d="M347.588 163.834V189.788H381.771V163.834H370.454V175.204C370.454 175.204 364.859 175.204 364.68 175.204C364.502 175.204 358.907 175.204 358.907 175.204V163.834H347.588Z" stroke="#636F7D" stroke-miterlimit="10" stroke-linecap="round" stroke-linejoin="round"/>
<path d="M378.323 148.151H379.381L381.769 163.834H375.934L378.323 148.151Z" stroke="#636F7D" stroke-miterlimit="10" stroke-linecap="round" stroke-linejoin="round"/>
<path d="M349.98 148.151H351.037L353.426 163.834H347.591L349.98 148.151Z" stroke="#636F7D" stroke-miterlimit="10" stroke-linecap="round" stroke-linejoin="round"/>
<path d="M356.034 163.834H358.907L364.68 155.993L370.454 163.834H373.326L366.245 138.97H363.115L356.034 163.834Z" stroke="#636F7D" stroke-miterlimit="10" stroke-linecap="round" stroke-linejoin="round"/>
<path d="M377.08 144.016V143.58H380.95V144.016H377.08Z" fill="#636F7D"/>
<path d="M364.461 132.303H364.898V138.973H364.461V132.303Z" fill="#636F7D"/>
<path d="M362.745 134.729V134.293H366.616V134.729H362.745Z" fill="#636F7D"/>
<path d="M348.412 144.016V143.58H352.282V144.016H348.412Z" fill="#636F7D"/>
<path d="M546.654 267.789H389.51V263.986H546.654V267.789Z" stroke="#636F7D" stroke-miterlimit="10" stroke-linecap="round" stroke-linejoin="round"/>
<path d="M546.654 273.253H389.51V267.789H546.654V273.253Z" fill="#636F7D"/>
<path d="M464.242 260.154C464.242 262.273 465.96 263.986 468.082 263.986C470.203 263.986 471.922 262.273 471.922 260.154C471.922 258.038 470.203 256.323 468.082 256.323C465.96 256.323 464.242 258.038 464.242 260.154Z" fill="#636F7D"/>
<path d="M380.221 191.691C380.221 191.691 402.796 239.275 467.063 256.501" stroke="#636F7D" stroke-miterlimit="10" stroke-linecap="round" stroke-linejoin="round"/>
<path d="M548.084 239.215C548.084 239.215 519.504 260.449 470.052 257.049" stroke="#636F7D" stroke-miterlimit="10" stroke-linecap="round" stroke-linejoin="round"/>
<path d="M394.89 212.606V267.789" stroke="#636F7D" stroke-miterlimit="10" stroke-linecap="round" stroke-linejoin="round"/>
<path d="M405.237 223.155V267.786" stroke="#636F7D" stroke-miterlimit="10" stroke-linecap="round" stroke-linejoin="round"/>
<path d="M415.584 231.738V267.786" stroke="#636F7D" stroke-miterlimit="10" stroke-linecap="round" stroke-linejoin="round"/>
<path d="M425.93 238.824V267.786" stroke="#636F7D" stroke-miterlimit="10" stroke-linecap="round" stroke-linejoin="round"/>
<path d="M436.276 244.689V267.786" stroke="#636F7D" stroke-miterlimit="10" stroke-linecap="round" stroke-linejoin="round"/>
<path d="M446.629 249.522V267.786" stroke="#636F7D" stroke-miterlimit="10" stroke-linecap="round" stroke-linejoin="round"/>
<path d="M456.976 253.444V267.786" stroke="#636F7D" stroke-miterlimit="10" stroke-linecap="round" stroke-linejoin="round"/>
<path d="M541.277 243.343V267.786" stroke="#636F7D" stroke-miterlimit="10" stroke-linecap="round" stroke-linejoin="round"/>
<path d="M530.93 248.133V267.786" stroke="#636F7D" stroke-miterlimit="10" stroke-linecap="round" stroke-linejoin="round"/>
<path d="M520.582 251.747V267.786" stroke="#636F7D" stroke-miterlimit="10" stroke-linecap="round" stroke-linejoin="round"/>
<path d="M510.237 254.385V267.786" stroke="#636F7D" stroke-miterlimit="10" stroke-linecap="round" stroke-linejoin="round"/>
<path d="M499.891 256.159V267.786" stroke="#636F7D" stroke-miterlimit="10" stroke-linecap="round" stroke-linejoin="round"/>
<path d="M489.537 257.157V267.786" stroke="#636F7D" stroke-miterlimit="10" stroke-linecap="round" stroke-linejoin="round"/>
<path d="M479.191 257.407V267.786" stroke="#636F7D" stroke-miterlimit="10" stroke-linecap="round" stroke-linejoin="round"/>
<path d="M349.139 189.788V194.307H220.009V189.788H349.139Z" fill="#636F7D"/>
<path d="M279.22 189.73H221.558V183.169H279.22V189.73Z" stroke="#636F7D" stroke-miterlimit="10" stroke-linecap="round" stroke-linejoin="round"/>
<path d="M249.923 189.73H243.798V183.169H249.923V189.73Z" fill="#636F7D"/>
<path d="M289.93 189.73H347.591V183.169H289.93V189.73Z" stroke="#636F7D" stroke-miterlimit="10" stroke-linecap="round" stroke-linejoin="round"/>
<path d="M319.226 189.73H325.351V183.169H319.226V189.73Z" fill="#636F7D"/>
<path d="M289.934 178.981V189.788H279.216V178.981H280.288V181.384H283.145V181.119L284.031 177.513H285.123L286.003 181.119V181.384H288.862V178.981H289.934Z" fill="#636F7D"/>
<path d="M546.657 256.145V294.281H568.15V256.145H566.72V235.708H566.299L563.262 232.265H551.544L548.507 235.708H548.086V256.145H546.657Z" fill="white"/>
<path d="M568.15 256.145H546.654V294.281H568.15V256.145Z" stroke="#636F7D" stroke-miterlimit="10" stroke-linecap="round" stroke-linejoin="round"/>
<path d="M566.72 235.711H548.084V256.145H566.72V235.711Z" stroke="#636F7D" stroke-miterlimit="10" stroke-linecap="round" stroke-linejoin="round"/>
<path d="M563.259 232.265H551.544L548.084 235.711H566.72L563.259 232.265Z" stroke="#636F7D" stroke-miterlimit="10" stroke-linecap="round" stroke-linejoin="round"/>
<path d="M455.586 275.637H476.911V234.976H455.586V275.637Z" fill="white"/>
<path d="M455.586 275.637H476.911V234.976H455.586V275.637Z" stroke="#636F7D" stroke-miterlimit="10" stroke-linecap="round" stroke-linejoin="round"/>
<path d="M438.139 275.637H455.586V244.657H438.139V275.637Z" fill="white"/>
<path d="M438.139 275.637H455.586V244.657H438.139V275.637Z" stroke="#636F7D" stroke-miterlimit="10" stroke-linecap="round" stroke-linejoin="round"/>
<path d="M438.139 258.211H455.586V250.466H438.139V258.211Z" fill="#636F7D"/>
<path d="M455.586 250.466H476.911V244.657H455.586V250.466Z" fill="#636F7D"/>
<path d="M476.911 250.466H505.989V275.637H476.911V250.466Z" fill="white"/>
<path d="M476.911 250.466H505.989V275.637H476.911V250.466Z" stroke="#636F7D" stroke-miterlimit="10" stroke-linecap="round" stroke-linejoin="round"/>
<path d="M424.569 275.372L428.449 286.748L429.664 290.326L431.261 295H510.991L514.141 290.326L516.552 286.748L529.252 267.892H502.474L486.038 275.372H424.569Z" fill="white"/>
<path d="M424.569 275.372L428.449 286.748L429.664 290.326L431.261 295H510.991L514.141 290.326L516.552 286.748L529.252 267.892H502.474L486.038 275.372H424.569Z" stroke="#636F7D" stroke-miterlimit="10" stroke-linecap="round" stroke-linejoin="round"/>
<path d="M482.726 262.084H505.989V256.275H482.726V262.084Z" fill="#636F7D"/>
<path d="M428.446 287.255L429.65 291.127H513.295L515.682 287.255H428.446Z" fill="#636F7D"/>
</g>
</svg>
