<svg width="62" height="62" viewBox="0 0 62 62" fill="none" xmlns="http://www.w3.org/2000/svg">
<g opacity="0.3">
<path d="M61 31.0003C61 47.5683 47.5689 61 30.9997 61C14.4311 61 1 47.5683 1 31.0003C1 14.4317 14.4311 0.999997 30.9997 0.999997C47.5689 0.999997 61 14.4317 61 31.0003Z" stroke="#636F7D" stroke-miterlimit="10" stroke-linecap="round" stroke-linejoin="round"/>
<path d="M10.5084 36.9501C10.5084 35.606 11.5978 34.5159 12.9425 34.5159C14.2866 34.5159 15.3767 35.606 15.3767 36.9501C15.3767 38.2948 14.2866 39.3849 12.9425 39.3849C11.5978 39.3849 10.5084 38.2948 10.5084 36.9501Z" stroke="#636F7D" stroke-miterlimit="10" stroke-linecap="round" stroke-linejoin="round"/>
<path d="M26.3545 49.9913C26.3545 47.9741 27.9896 46.3397 30.0061 46.3397C32.0232 46.3397 33.6583 47.9741 33.6583 49.9913C33.6583 52.0077 32.0232 53.6428 30.0061 53.6428C27.9896 53.6428 26.3545 52.0077 26.3545 49.9913Z" stroke="#636F7D" stroke-miterlimit="10" stroke-linecap="round" stroke-linejoin="round"/>
<path d="M15.0473 46.9218C15.0473 45.6088 16.111 44.5451 17.4234 44.5451C18.7351 44.5451 19.8001 45.6088 19.8001 46.9218C19.8001 48.2349 18.7351 49.2986 17.4234 49.2986C16.111 49.2986 15.0473 48.2349 15.0473 46.9218Z" stroke="#636F7D" stroke-miterlimit="10" stroke-linecap="round" stroke-linejoin="round"/>
<path d="M23.7244 38.3953C23.7244 37.2933 24.6178 36.3992 25.7197 36.3992C26.8217 36.3992 27.7158 37.2933 27.7158 38.3953C27.7158 39.4972 26.8217 40.3906 25.7197 40.3906C24.6178 40.3906 23.7244 39.4972 23.7244 38.3953Z" stroke="#636F7D" stroke-miterlimit="10" stroke-linecap="round" stroke-linejoin="round"/>
</g>
</svg>
