<svg width="93" height="47" viewBox="0 0 93 47" fill="none" xmlns="http://www.w3.org/2000/svg">
<path d="M90.6709 46.4871C91.2213 46.5327 91.7044 46.1234 91.75 45.573L92.4924 36.6037C92.538 36.0533 92.1287 35.5702 91.5783 35.5246C91.0279 35.479 90.5448 35.8883 90.4992 36.4387L89.8393 44.4114L81.8666 43.7515C81.3162 43.7059 80.8331 44.1152 80.7875 44.6656C80.7419 45.216 81.1512 45.6991 81.7016 45.7447L90.6709 46.4871ZM26.2263 25.7202L27.2216 25.6234L26.2263 25.7202ZM72.474 29.1575L72.9589 28.2829L72.474 29.1575ZM26.2338 7.59536L26.6764 6.69865L26.2338 7.59536ZM54.487 36.9461L53.8229 36.1984L54.487 36.9461ZM90.7534 45.4905C91.5164 44.8441 91.5164 44.8441 91.5164 44.8441C91.5164 44.8441 91.5164 44.8441 91.5164 44.844C91.5163 44.844 91.5163 44.844 91.5162 44.8439C91.5161 44.8438 91.516 44.8436 91.5158 44.8434C91.5155 44.843 91.5151 44.8425 91.5145 44.8419C91.5134 44.8405 91.5118 44.8386 91.5097 44.8362C91.5055 44.8313 91.4995 44.8242 91.4915 44.8149C91.4757 44.7963 91.4524 44.769 91.4218 44.7334C91.3607 44.6622 91.2707 44.5578 91.1538 44.4235C90.92 44.1549 90.5785 43.7664 90.1451 43.2842L88.6576 44.6212C89.0833 45.0948 89.4178 45.4752 89.6452 45.7366C89.759 45.8672 89.8459 45.9681 89.9041 46.0359C89.9332 46.0698 89.9551 46.0954 89.9696 46.1124C89.9768 46.1209 89.9822 46.1272 89.9856 46.1313C89.9874 46.1333 89.9887 46.1348 89.9894 46.1358C89.9898 46.1362 89.9901 46.1366 89.9903 46.1367C89.9904 46.1368 89.9904 46.1369 89.9904 46.1369C89.9904 46.1369 89.9904 46.1369 89.9904 46.1369C89.9904 46.1369 89.9904 46.1369 89.9904 46.1369C89.9904 46.1369 89.9904 46.1369 90.7534 45.4905ZM87.3255 40.2533C86.448 39.3411 85.4644 38.3465 84.407 37.3227L83.0158 38.7596C84.0538 39.7646 85.0205 40.742 85.884 41.6398L87.3255 40.2533ZM81.3669 34.5005C80.3329 33.5835 79.2616 32.6796 78.1758 31.8265L76.9401 33.3991C77.9896 34.2237 79.0302 35.1014 80.0399 35.9969L81.3669 34.5005ZM74.7729 29.3761C74.1665 28.9832 73.5605 28.6165 72.9589 28.2829L71.9891 30.0321C72.5456 30.3406 73.1122 30.6832 73.6854 31.0546L74.7729 29.3761ZM72.9589 28.2829C72.4036 27.9751 71.8288 27.6629 71.2368 27.348L70.2974 29.1136C70.8797 29.4234 71.4443 29.73 71.9891 30.0321L72.9589 28.2829ZM67.7462 25.5597C66.6042 24.9958 65.42 24.4309 64.2052 23.8728L63.3702 25.6901C64.568 26.2405 65.7353 26.7973 66.8608 27.3531L67.7462 25.5597ZM60.6187 22.2851C59.4233 21.776 58.2098 21.2793 56.9879 20.8017L56.2598 22.6645C57.4621 23.1344 58.6571 23.6235 59.835 24.1251L60.6187 22.2851ZM53.3063 19.4325C52.057 18.9925 50.8081 18.5786 49.5699 18.1979L48.9822 20.1096C50.1924 20.4817 51.4156 20.887 52.6418 21.3189L53.3063 19.4325ZM45.772 17.1304C44.4542 16.7974 43.1595 16.5121 41.9015 16.2842L41.545 18.2522C42.7524 18.4709 44.0022 18.7461 45.282 19.0695L45.772 17.1304ZM37.9469 15.7567C36.5183 15.6438 35.156 15.6323 33.8889 15.7447L34.0657 17.7369C35.1985 17.6364 36.4463 17.6443 37.7893 17.7505L37.9469 15.7567ZM29.8048 16.7145C28.4015 17.3308 27.2312 18.2511 26.4141 19.5362L28.1018 20.6093C28.6745 19.7087 29.5108 19.028 30.609 18.5456L29.8048 16.7145ZM25.1775 23.7058C25.141 24.3698 25.1587 25.0733 25.231 25.817L27.2216 25.6234C27.1579 24.9688 27.1441 24.3673 27.1744 23.8156L25.1775 23.7058ZM25.231 25.817C25.296 26.4855 25.3907 27.1342 25.5134 27.7629L27.4763 27.3798C27.3661 26.8152 27.2806 26.2298 27.2216 25.6234L25.231 25.817ZM26.671 31.5256C27.2146 32.7794 27.887 33.9203 28.6645 34.9476L30.2593 33.7406C29.5774 32.8397 28.9858 31.8369 28.506 30.7301L26.671 31.5256ZM31.4189 37.7953C32.4507 38.6342 33.57 39.3419 34.7463 39.9203L35.6288 38.1255C34.5812 37.6104 33.5902 36.983 32.6805 36.2435L31.4189 37.7953ZM38.4372 41.2756C39.7092 41.5995 41.0114 41.7951 42.3144 41.8641L42.4201 39.8669C41.2457 39.8047 40.0735 39.6284 38.9307 39.3374L38.4372 41.2756ZM46.2329 41.6871C47.5411 41.497 48.8232 41.1748 50.0474 40.72L49.3509 38.8452C48.2645 39.2488 47.1199 39.5372 45.9454 39.7078L46.2329 41.6871ZM53.574 38.9171C54.125 38.5446 54.6522 38.1368 55.151 37.6938L53.8229 36.1984C53.3917 36.5814 52.9342 36.9354 52.4538 37.2602L53.574 38.9171ZM55.151 37.6938C55.722 37.1867 56.2039 36.6553 56.5959 36.0995L54.9614 34.9469C54.6685 35.3623 54.2933 35.7806 53.8229 36.1984L55.151 37.6938ZM57.846 31.8783C57.7721 30.5084 57.29 29.1498 56.5371 27.8317L54.8005 28.8236C55.4476 29.9566 55.7964 31.0123 55.8489 31.9861L57.846 31.8783ZM54.1303 24.5907C53.2933 23.6643 52.3409 22.7428 51.3017 21.8323L49.9837 23.3366C50.9769 24.2068 51.8715 25.0739 52.6463 25.9315L54.1303 24.5907ZM48.2735 19.3808C47.2646 18.6196 46.2059 17.867 45.1134 17.1271L43.9918 18.783C45.0601 19.5066 46.0907 20.2393 47.0689 20.9773L48.2735 19.3808ZM41.8678 15.0214C40.7792 14.343 39.6725 13.6785 38.5614 13.0312L37.5546 14.7593C38.6506 15.3977 39.74 16.052 40.81 16.7188L41.8678 15.0214ZM35.2068 11.1327C34.0618 10.5023 32.9258 9.8935 31.8135 9.31006L30.8845 11.0812C31.9861 11.659 33.1102 12.2614 34.2422 12.8847L35.2068 11.1327ZM28.392 7.55334C27.807 7.25913 27.2343 6.97402 26.6764 6.69865L25.7912 8.49208C26.3449 8.76539 26.9131 9.04827 27.4933 9.34007L28.392 7.55334ZM26.6764 6.69865C26.0024 6.36594 25.3306 6.05082 24.6627 5.75236L23.8467 7.57834C24.492 7.86666 25.1406 8.17095 25.7912 8.49208L26.6764 6.69865ZM20.5458 4.09322C19.0956 3.5696 17.6805 3.12012 16.3176 2.7343L15.7728 4.65868C17.0932 5.03247 18.4634 5.46768 19.8665 5.97434L20.5458 4.09322ZM12.0097 1.67344C10.4219 1.3396 8.95217 1.0927 7.63748 0.910158L7.36243 2.89115C8.63508 3.06786 10.0591 3.30705 11.5982 3.63065L12.0097 1.67344ZM3.2162 0.465111C2.50599 0.422872 1.94711 0.405537 1.56299 0.398812C1.37091 0.39545 1.22249 0.394739 1.12065 0.394901C1.06973 0.394979 1.03045 0.395275 1.00317 0.395565C0.989542 0.395714 0.978903 0.395856 0.971316 0.395969C0.967518 0.396025 0.964489 0.396077 0.962223 0.396117C0.961093 0.396138 0.960152 0.396153 0.959404 0.396169C0.95903 0.396175 0.9587 0.396179 0.958427 0.396187C0.958284 0.396187 0.958157 0.396189 0.958045 0.396194C0.957986 0.396194 0.957909 0.396196 0.957884 0.396196C0.957808 0.396197 0.957732 0.396197 0.977228 1.39601C0.996717 2.39582 0.99665 2.39582 0.99659 2.39582C0.996573 2.39582 0.996513 2.39582 0.996479 2.39582C0.996412 2.39582 0.99636 2.39583 0.996318 2.39583C0.996233 2.39583 0.996191 2.39583 0.9962 2.39583C0.996224 2.39583 0.996436 2.39583 0.996836 2.39582C0.997642 2.3958 0.999211 2.39578 1.00153 2.39574C1.00618 2.39567 1.01385 2.39557 1.0245 2.39545C1.04579 2.39522 1.07901 2.39497 1.12377 2.3949C1.2133 2.39476 1.349 2.39537 1.52798 2.39851C1.88597 2.40477 2.41689 2.42111 3.09746 2.46158L3.2162 0.465111Z" fill="#FFE852"/>
</svg>
