<svg width="97" height="97" viewBox="0 0 97 97" fill="none" xmlns="http://www.w3.org/2000/svg">
<g opacity="0.6">
<path d="M45.7728 65.0762L46.2911 64.6583L46.2084 64.7378C46.5518 64.3727 46.9683 64.0842 47.4308 63.891C47.9214 63.6873 48.4564 63.6141 48.9837 63.6785C49.1118 63.6937 49.2389 63.716 49.3646 63.7453L49.6608 63.826L50.1234 63.9476C50.4405 64.0246 50.7651 64.1072 51.0888 64.1743C51.7362 64.3178 52.3898 64.4365 53.0467 64.5346C53.7034 64.6352 54.3634 64.7128 55.0268 64.7674C57.681 64.9999 60.3544 64.8746 62.9753 64.3949C65.8584 63.855 68.6873 62.8364 71.0759 61.1983C72.2998 60.3669 73.396 59.3616 74.33 58.214C75.2521 57.0734 75.9797 55.7885 76.4835 54.411C76.9841 53.0257 77.2734 51.5729 77.3415 50.1015C77.377 49.3595 77.3694 48.6161 77.3188 47.875C77.2615 47.1312 77.1647 46.3885 77.0377 45.6488L77.066 45.7674L76.7734 44.922L76.6276 44.4993C76.5744 44.3601 76.5138 44.2237 76.4573 44.0857L76.1135 43.26C75.9886 42.9893 75.8522 42.7236 75.7225 42.4551L75.5259 42.0532C75.4602 41.9194 75.3808 41.7924 75.3089 41.6616L74.868 40.8821C74.714 40.6263 74.5459 40.3786 74.3859 40.1263L74.1433 39.7493C74.0636 39.623 73.9695 39.5058 73.8834 39.3836L73.3561 38.657C73.1754 38.4183 72.9804 38.19 72.7935 37.9558C72.4276 37.481 72.0077 37.049 71.6112 36.5987C70.7842 35.7227 69.9058 34.8967 68.9806 34.1252C68.5259 33.7286 68.0404 33.3673 67.5624 32.9976C67.3268 32.8083 67.0724 32.6427 66.8275 32.4652C66.5788 32.2924 66.3371 32.1104 66.083 31.945C65.5724 31.6178 65.0746 31.2721 64.5483 30.9682L63.7677 30.4995L62.9704 30.0573C60.8302 28.8888 58.6028 27.8877 56.3081 27.063C54.0051 26.222 51.648 25.5373 49.2529 25.0135C48.9545 24.943 48.654 24.882 48.3531 24.8235L47.4511 24.6437L46.545 24.4867L46.0919 24.408L45.6372 24.3403L44.7276 24.2061L43.8153 24.0942C43.2077 24.0124 42.5968 23.9695 41.9875 23.9066L41.0644 23.8425L40.6038 23.8111L40.1579 23.7867L39.9349 23.7743L39.7147 23.7717L39.2746 23.767C38.9814 23.7751 38.6876 23.7795 38.3947 23.7997C37.2197 23.8745 36.056 24.0757 34.924 24.3996C33.7888 24.7236 32.69 25.1638 31.6451 25.7133C30.5947 26.2573 29.605 26.9113 28.6926 27.6643C28.235 28.0387 27.7969 28.4365 27.3802 28.8559C27.1785 29.0718 26.9657 29.2779 26.7751 29.5039L26.482 29.8366L26.2033 30.1813C25.4629 31.1037 24.8263 32.1048 24.3051 33.1666C24.1681 33.4285 24.0591 33.7034 23.9339 33.9711C23.8274 34.2462 23.7086 34.5178 23.6136 34.7968C23.5172 35.0754 23.4166 35.352 23.3409 35.6424C23.2614 35.93 23.1712 36.2151 23.0996 36.5048C22.8125 37.6639 22.6348 38.8473 22.569 40.0396L22.5489 40.4865C22.5405 40.6355 22.5348 40.7846 22.5404 40.9336L22.5548 41.8284L22.6193 42.7212C22.6473 43.0182 22.6882 43.3141 22.7242 43.6107C23.0652 45.9946 23.8498 48.2935 25.0374 50.3885C25.6314 51.443 26.3093 52.4481 27.0645 53.3939C28.9119 55.6906 31.1387 57.6542 33.6485 59.1996L34.0869 59.4671C34.2289 59.556 34.369 59.6407 34.5097 59.7169L35.3073 60.1701C35.8247 60.4372 36.285 60.6968 36.7147 60.8994L37.3186 61.2024L37.8624 61.4582L38.3401 61.691L38.7599 61.8859C39.5153 62.2475 39.49 62.3563 38.7685 62.2363C38.5886 62.2053 38.3637 62.164 38.1 62.101C37.8387 62.0317 37.5366 61.9465 37.1952 61.8456C36.8544 61.7434 36.4835 61.6021 36.0714 61.4555C35.8653 61.3821 35.6576 61.2873 35.4371 61.197C35.2188 61.1021 34.9866 61.0131 34.7555 60.9001C32.2786 59.7525 30.0079 58.2042 28.0349 56.3175C25.7592 54.1606 23.9373 51.5708 22.6761 48.7002C22.051 47.258 21.5929 45.7491 21.3105 44.2028C21.0292 42.6519 20.9395 41.0723 21.0431 39.4994C21.1449 37.927 21.4242 36.3711 21.8757 34.8615C22.1084 34.1027 22.3873 33.3589 22.7109 32.6341C23.0437 31.9134 23.4199 31.2135 23.8374 30.5382C26.0341 27.0702 29.2832 24.3963 33.109 22.9079C33.9482 22.5863 34.8097 22.3261 35.6866 22.1292C36.5601 21.9321 37.4477 21.8038 38.3413 21.7457C39.2118 21.6952 40.0849 21.7091 40.9534 21.7874C42.2646 21.8823 43.5925 22.0328 44.9063 22.2099L45.8906 22.3601L46.3827 22.4355L46.8729 22.5227L47.8531 22.6972L48.8292 22.8942C49.1553 22.9567 49.4793 23.0289 49.8027 23.1039L50.7739 23.3251C51.4167 23.4921 52.0646 23.6393 52.7026 23.8257L53.6626 24.0942L54.6159 24.3864L55.0926 24.5329L55.5655 24.6916L56.5115 25.009L57.4489 25.3524L57.9173 25.525L58.3811 25.7103L59.3083 26.0822L60.2253 26.4803C60.8399 26.7378 61.436 27.0392 62.0406 27.3203C62.3398 27.4677 62.635 27.6238 62.9323 27.7752C63.2294 27.9272 63.5269 28.0785 63.8166 28.2451L64.6916 28.7335C64.9813 28.8998 65.2647 29.0777 65.5513 29.2497C66.1285 29.5867 66.6787 29.9698 67.2392 30.3347C67.5159 30.523 67.785 30.723 68.0579 30.9169C68.3305 31.1113 68.6029 31.3059 68.8639 31.5167L69.6551 32.1371C69.9137 32.3505 70.166 32.572 70.4212 32.7895C72.3417 34.4358 74.0471 36.3177 75.497 38.3905C75.6882 38.6436 75.8474 38.9196 76.0211 39.1853L76.2768 39.5872C76.3616 39.7215 76.4498 39.8536 76.5243 39.9944C76.8305 40.5517 77.1604 41.0964 77.4234 41.6773C77.5596 41.965 77.7062 42.248 77.8334 42.5399L78.1969 43.4239C78.2559 43.5718 78.3211 43.7174 78.3748 43.8673L78.5291 44.3199L78.8366 45.2253C78.8462 45.2534 78.8536 45.2823 78.8587 45.3115L78.862 45.3314C79.1227 46.8075 79.2306 48.3066 79.1838 49.8049C79.1352 51.3209 78.8817 52.8234 78.43 54.2714C77.9532 55.7804 77.2419 57.2051 76.3223 58.4931C75.4056 59.7719 74.3071 60.9102 73.0617 61.8718C71.8291 62.8207 70.4906 63.6233 69.073 64.2636C67.6687 64.897 66.2087 65.3987 64.7118 65.7623C61.7348 66.4747 58.6684 66.7407 55.6132 66.5515C54.0914 66.4638 52.5777 66.2698 51.083 65.9709C50.71 65.8935 50.3373 65.8144 49.967 65.7244C49.7828 65.6831 49.5928 65.6323 49.4045 65.584L49.1218 65.5109C49.0382 65.4899 48.9706 65.4656 48.9081 65.456C48.6618 65.4031 48.4057 65.4206 48.169 65.5065C47.9165 65.6036 47.6895 65.757 47.5055 65.9552L47.4964 65.9647C47.4836 65.9779 47.4697 65.991 47.456 66.0028C45.9157 67.3151 44.1505 68.3378 42.2459 69.0215C40.2281 69.7576 38.0811 70.0737 35.9368 69.9501L35.909 69.9484C35.7831 69.9405 35.6641 69.888 35.5734 69.8003C35.4826 69.7126 35.4262 69.5954 35.4141 69.4698C35.4019 69.3442 35.435 69.2184 35.5073 69.1149C35.5796 69.0115 35.6864 68.9372 35.8085 68.9054C36.1585 68.8054 36.4968 68.6683 36.8177 68.4965C37.1551 68.3212 37.4823 68.1267 37.7975 67.914C38.1143 67.703 38.422 67.4794 38.7145 67.2417C39.0071 67.0085 39.2875 66.7604 39.5546 66.4985C40.0861 66.0059 40.5273 65.4242 40.8584 64.7796C41.0135 64.4703 41.0884 64.1271 41.0764 63.7813C41.0476 63.4313 40.8982 63.1022 40.6538 62.8501C40.3622 62.5732 40.0401 62.3303 39.6937 62.1261C39.4721 61.9855 39.3855 61.8746 39.4453 61.8165C39.4757 61.7858 39.5415 61.7728 39.649 61.7644C39.712 61.7624 39.775 61.7637 39.8379 61.7683L39.9545 61.7785L40.0878 61.8071C40.1819 61.829 40.2864 61.8562 40.4012 61.8895C40.5159 61.9341 40.6413 61.9893 40.7765 62.0519C40.848 62.0897 40.9173 62.1316 40.9841 62.1775C41.0602 62.2242 41.1332 62.2758 41.2026 62.3322C41.2745 62.3968 41.349 62.4649 41.4227 62.5388C41.4976 62.6215 41.5657 62.71 41.6264 62.8036C41.7031 62.9143 41.7674 63.0332 41.8181 63.1579C41.8736 63.2815 41.9157 63.4106 41.9438 63.543C42.0014 63.7961 42.0193 64.0566 41.997 64.3151C41.952 64.7717 41.8266 65.2168 41.6265 65.6297C41.4496 66.005 41.237 66.3624 40.9915 66.697C40.7585 67.0214 40.5053 67.3307 40.2334 67.6233C39.6961 68.2039 39.1058 68.7331 38.4702 69.2041C38.1437 69.4446 37.8045 69.6674 37.4541 69.8715C37.0709 70.0982 36.6637 70.2815 36.2399 70.4181L35.9894 68.3778C36.6507 68.3808 37.3116 68.3441 37.9685 68.2677C38.6682 68.1823 39.362 68.054 40.0459 67.8837C40.735 67.7081 41.4123 67.4897 42.0741 67.2296C42.7359 66.9629 43.3798 66.6541 44.0021 66.3051C44.6182 65.949 45.2099 65.5523 45.7733 65.1176C45.7726 65.1041 45.7722 65.0913 45.7728 65.0762Z" fill="#FFE852"/>
</g>
</svg>
