<svg width="101" height="102" viewBox="0 0 101 102" fill="none" xmlns="http://www.w3.org/2000/svg">
<g opacity="0.6">
<path d="M55.2399 68.3131C51.9426 68.7435 48.6613 69.0501 45.3443 69.261L46.4097 68.5276C45.2529 70.9057 43.6454 73.0376 41.731 74.7811C41.4912 74.9985 41.2569 75.2229 41.0121 75.4336L40.2625 76.0454C40.1368 76.1464 40.014 76.2513 39.8859 76.3487L39.4964 76.6328L38.717 77.2C37.6496 77.9094 36.5644 78.5907 35.4299 79.1701C32.8368 80.5496 30.0784 81.5608 27.2859 82.3676C26.7067 82.5349 26.1016 82.2011 25.9342 81.6219C25.8135 81.204 25.9536 80.7726 26.2586 80.5019L26.2719 80.4904C27.3856 79.5051 28.4873 78.5075 29.4781 77.4224C30.5722 76.2482 31.5897 75.0081 32.4403 73.6882L32.7557 73.1921C32.8555 73.0248 32.9478 72.8545 33.0445 72.6861L33.1882 72.4329C33.2341 72.348 33.2745 72.2614 33.318 72.1758C33.4013 72.0036 33.4949 71.8336 33.5705 71.6602L33.7952 71.1403C33.8576 70.9665 33.9287 70.7924 33.9854 70.6197C34.0383 70.4477 34.0973 70.274 34.1345 70.1086C34.1584 70.0231 34.1751 69.9432 34.1891 69.8664C34.1969 69.8275 34.2061 69.7861 34.2088 69.7571C34.2132 69.7282 34.2199 69.6782 34.218 69.6998L35.5427 70.8869C34.2304 71.1098 32.898 71.1982 31.5696 71.1486C30.2418 71.0841 28.9277 70.8683 27.6459 70.5399L26.692 70.2664C26.3788 70.1616 26.069 70.0465 25.7575 69.9364C25.443 69.833 25.1441 69.6926 24.8399 69.5646L24.3851 69.3689C24.2325 69.3058 24.089 69.224 23.9405 69.1523C22.7494 68.5833 21.6291 67.8773 20.5735 67.0899C20.0375 66.7053 19.5434 66.268 19.0424 65.8395L18.3272 65.1557L18.1493 64.9838L17.9806 64.8026L17.6435 64.4397L17.3071 64.0761L16.9918 63.6934L16.6769 63.3101L16.5198 63.1183L16.3738 62.9173L15.7912 62.1123L15.2584 61.2713C14.5749 60.1322 14.0002 58.9224 13.561 57.6561C13.1327 56.3857 12.8579 55.0581 12.7412 53.7123L12.7067 53.2063C12.6973 53.0376 12.6782 52.8692 12.6854 52.6997L12.6977 51.6837C12.7519 51.0088 12.7978 50.3302 12.9371 49.6657L13.0273 49.1651C13.0564 48.998 13.1096 48.8367 13.1499 48.6722C13.2405 48.3461 13.3156 48.0144 13.4216 47.6935L13.7636 46.7385C13.816 46.5783 13.8875 46.4227 13.9591 46.2671L14.1717 45.8L14.3858 45.3334C14.4593 45.1818 14.5417 45.0486 14.6192 44.9054L15.0929 44.0621C15.4146 43.5125 15.7357 42.9625 16.077 42.4218C16.7539 41.3381 17.4734 40.274 18.25 39.2449C19.7987 37.1848 21.6022 35.2799 23.5879 33.6269C24.5802 32.7961 25.6049 32.0315 26.6515 31.2991C27.6946 30.5593 28.7771 29.8766 29.8741 29.2197C33.0352 27.3478 36.4032 25.8222 39.9001 24.6856C41.6487 24.1182 43.4292 23.6477 45.2308 23.2782C47.0274 22.9244 48.8333 22.6225 50.6557 22.4294C54.2973 22.0403 57.9862 21.9765 61.6514 22.3536L62.3387 22.4197L63.0238 22.513C63.4801 22.5787 63.9381 22.63 64.3928 22.7083L65.7558 22.9531C65.9835 22.9903 66.2091 23.0402 66.4344 23.0924L67.1109 23.2446L67.7873 23.3973C68.0124 23.4501 68.2344 23.5169 68.4582 23.5762C68.9041 23.7007 69.3527 23.8153 69.7964 23.9488L71.1193 24.3794L71.45 24.4874L71.7756 24.6112L72.4267 24.8594L73.0776 25.1081C73.2947 25.1907 73.5045 25.2927 73.7183 25.3842C74.1441 25.5755 74.5692 25.7528 74.995 25.9565C75.4192 26.1795 75.8518 26.3891 76.2677 26.6259C76.6743 26.8772 77.092 27.1131 77.4881 27.3796C79.0792 28.4382 80.5211 29.7004 81.7914 31.1125C83.0608 32.5259 84.1626 34.0893 85.0523 35.7833C85.9443 37.474 86.6123 39.3128 86.8997 41.2902C86.9175 41.4118 86.9412 41.5396 86.9534 41.6561L86.9882 42.0036L87.0559 42.699C87.0859 43.1658 87.127 43.6304 87.1372 44.1007C87.1757 45.0377 87.1644 45.9837 87.0921 46.9332C86.952 48.828 86.5753 50.7566 85.7846 52.5816C85.5925 53.0386 85.3607 53.4824 85.1172 53.9198L84.7347 54.5486L84.3295 55.1514C83.7752 55.9398 83.1707 56.6749 82.5337 57.376C81.8998 58.0806 81.2129 58.728 80.5108 59.3566C80.1519 59.6618 79.7978 59.9728 79.423 60.2583C79.2366 60.402 79.0561 60.5537 78.8644 60.6906L78.2923 61.105C76.6449 62.2757 74.8359 63.2354 72.9469 63.976L73.7162 62.3644C74.3583 64.5212 75.3088 66.5568 76.7805 68.0975C76.8531 68.1871 76.9386 68.2613 77.0197 68.3385C77.1008 68.4157 77.181 68.4922 77.2603 68.5677C77.3392 68.6441 77.4172 68.7197 77.4944 68.7944C77.5752 68.8651 77.6597 68.9297 77.7404 68.9971C77.9041 69.1291 78.0592 69.2652 78.218 69.39C78.383 69.5082 78.544 69.6235 78.7012 69.7361C78.8544 69.8554 79.0181 69.9534 79.176 70.0528C79.334 70.1534 79.4881 70.2515 79.6382 70.3471C79.7947 70.436 79.9472 70.5226 80.0956 70.6069C80.2434 70.6938 80.388 70.7787 80.5357 70.8512C81.6955 71.4682 82.6691 71.9199 83.4009 72.3353L83.45 72.3636C83.4721 72.3746 83.4939 72.3853 83.5153 72.3959C83.5581 72.4176 83.5991 72.4397 83.6377 72.4619C83.7149 72.5063 83.7823 72.5514 83.8379 72.5933C83.9497 72.678 84.0134 72.7437 84.0527 72.7834C84.1285 72.863 84.1222 72.8646 84.0565 72.8652C83.9912 72.8659 83.8512 72.8516 83.67 72.9045C83.5813 72.9308 83.4855 72.9808 83.4141 73.0479C83.3407 73.1144 83.3008 73.1885 83.2594 73.2244C83.2487 73.2337 83.2377 73.2411 83.2254 73.2467C83.1962 73.2474 83.1553 73.2448 83.1193 73.2436C83.0447 73.2392 82.9661 73.2346 82.8834 73.2297C82.7185 73.2179 82.5381 73.2009 82.3427 73.1786C81.9513 73.1206 81.4984 73.0567 80.988 72.9285C79.972 72.6857 78.7009 72.2794 77.3377 71.4669C76.5989 71.0436 75.9105 70.4943 75.2507 69.9023C75.0918 69.7484 74.9408 69.5852 74.7855 69.4254L74.5542 69.1833C74.4758 69.1034 74.3998 69.0214 74.3329 68.9324C74.194 68.758 74.0549 68.5831 73.9155 68.408L73.7074 68.1439C73.6394 68.0549 73.5828 67.9592 73.5201 67.867C72.5052 66.3915 71.8023 64.7433 71.2988 63.1067C71.116 62.5123 71.4145 61.8846 71.9722 61.6432L72.0038 61.6297C72.5212 61.4079 73.0302 61.2091 73.5153 60.9658C73.9885 60.7534 74.44 60.4963 74.8998 60.2554C75.3456 59.9891 75.7997 59.7356 76.2302 59.4433C77.1022 58.8773 77.9412 58.2563 78.729 57.5762C79.519 56.8993 80.2678 56.1739 80.9574 55.4016C81.6457 54.6298 82.2785 53.809 82.8055 52.9535C83.0758 52.528 83.2958 52.0963 83.4981 51.6398C83.7041 51.1885 83.8667 50.7136 84.0176 50.2346C84.3049 49.2695 84.4919 48.2628 84.5943 47.2385C84.6969 46.2139 84.7158 45.172 84.6733 44.1273C84.6672 43.8663 84.6501 43.6048 84.6304 43.3431C84.6123 43.0815 84.5965 42.8199 84.5665 42.5581C84.5373 42.2997 84.5193 42.0272 84.4813 41.7805L84.3644 41.0472C84.1625 40.0697 83.8432 39.1039 83.4501 38.1625C83.2271 37.7014 83.0309 37.229 82.7715 36.7836C82.6451 36.5599 82.5342 36.3282 82.3956 36.1108L81.9874 35.455C81.8579 35.2324 81.6965 35.0294 81.5516 34.8163L81.3289 34.5001C81.2563 34.3934 81.1801 34.2895 81.0975 34.1901C80.7753 33.7868 80.4641 33.3747 80.1106 32.9978C79.437 32.2145 78.6743 31.516 77.8974 30.842L77.2903 30.3665L76.9872 30.1284C76.8835 30.0529 76.7761 29.9827 76.6709 29.9094L76.0369 29.4738C75.824 29.3314 75.5987 29.2096 75.3805 29.0763L75.0509 28.8802L74.886 28.7824L74.7151 28.6964L74.0323 28.3516C73.8109 28.2313 73.5643 28.1325 73.3239 28.0284L72.6011 27.7177C70.6614 26.9168 68.6431 26.3012 66.5858 25.8527C64.3138 25.3582 61.9475 25.0696 59.5874 24.9459C57.2264 24.8211 54.8717 24.8595 52.5977 24.9912L51.2354 25.0838L49.8756 25.224C49.4212 25.264 48.9707 25.337 48.5183 25.397C48.0663 25.4599 47.6133 25.5179 47.1642 25.602C45.356 25.8891 43.5854 26.2904 41.8316 26.7963C38.3293 27.8086 34.9449 29.247 31.7707 31.055C30.1834 31.9589 28.6482 32.9548 27.1745 34.0345C25.6951 35.109 24.3071 36.2656 23.0351 37.5427C21.7591 38.8144 20.6075 40.2085 19.5454 41.6795C19.0226 42.4219 18.5073 43.1714 18.0275 43.9489C17.5383 44.7201 17.0767 45.5139 16.6317 46.2939C15.4473 48.5474 14.8481 51.1512 15.1044 53.7154C15.3385 56.2823 16.3175 58.7805 17.7909 60.9486C18.5237 62.0376 19.3957 63.036 20.3535 63.9402C21.3128 64.8439 22.3652 65.65 23.4873 66.3414C23.7727 66.5058 24.0516 66.6824 24.3417 66.8381L25.2209 67.2884L26.1244 67.6851C26.2733 67.7556 26.4297 67.8063 26.5836 67.8635L27.0465 68.0325C28.2873 68.4623 29.572 68.7554 30.8712 68.8955C32.3021 69.0473 33.7504 69.0055 35.1657 68.7648L35.2074 68.7577C35.7513 68.6652 36.2671 69.0311 36.3596 69.575C36.3747 69.6639 36.3768 69.7571 36.3687 69.8428L36.3575 69.9534L36.3464 70.0285L36.3228 70.1767L36.2675 70.4449C36.2246 70.6149 36.1829 70.7848 36.133 70.9474C36.0809 71.1073 36.0318 71.2702 35.9759 71.4272L35.7989 71.8904C35.5481 72.4963 35.2654 73.078 34.95 73.6334C34.3226 74.7467 33.6018 75.7844 32.8145 76.7542C31.2559 78.7115 29.4772 80.4399 27.6139 82.0429L26.7234 80.3943C30.3793 79.3613 33.9249 77.884 37.0649 75.8032C38.6309 74.7624 40.0889 73.5669 41.3578 72.2037C42.6264 70.8421 43.7021 69.3096 44.49 67.6395L44.4931 67.6328C44.6284 67.3462 44.9053 67.1711 45.2004 67.1505C48.0293 66.9609 50.8691 66.693 53.686 66.3432C55.0946 66.1663 56.4992 65.9684 57.8911 65.7302L58.9314 65.5419L59.9622 65.3306L60.9788 65.0917C61.3073 64.9973 61.6453 64.9129 61.9651 64.809C62.1682 64.7398 62.3709 64.6707 62.5649 64.6045L62.6011 64.5922C62.8798 64.4973 63.1761 64.5752 63.3733 64.7677C66.0463 67.3874 69.0861 69.4654 72.3003 70.8402C75.5107 72.2211 78.8579 72.9496 82.082 73.0712C82.8461 73.099 83.4129 73.1167 83.7828 73.1551C83.9679 73.1742 84.1032 73.1996 84.1905 73.2321C84.2122 73.2403 84.2307 73.2491 84.2459 73.2586C84.3093 73.2555 84.4199 73.2153 84.4882 73.1496C84.5602 73.0844 84.5951 73.0136 84.6148 72.9681C84.6344 72.9219 84.6429 72.8901 84.6504 72.8763C84.6565 72.8751 84.6624 72.8747 84.6684 72.8751C84.6737 72.8806 84.682 72.8627 84.6839 72.8994C84.6856 72.9287 84.686 72.9759 84.661 73.0506C84.6377 73.1231 84.5739 73.2298 84.4697 73.3024C84.419 73.3386 84.363 73.3649 84.3114 73.3814L84.2734 73.3924C84.27 73.3938 84.2713 73.3943 84.2699 73.3953L84.2655 73.4005C84.2533 73.4147 84.2375 73.4295 84.218 73.4448C84.1783 73.4758 84.1277 73.5067 84.0616 73.54C83.9304 73.606 83.7454 73.6741 83.5048 73.741C83.0245 73.8719 82.3223 73.9913 81.3996 74.0344C80.7468 74.063 80.0897 74.0631 79.4296 74.04C78.7705 74.0073 78.1069 73.9648 77.4453 73.8789C76.1198 73.7226 74.7949 73.4525 73.491 73.0777C70.8827 72.3301 68.3613 71.1569 66.0808 69.6421C64.5983 68.6649 63.2045 67.5266 61.9127 66.2706L63.3283 66.5562L62.8078 66.738C62.6341 66.7979 62.4586 66.8616 62.2907 66.9051L61.7812 67.0494L61.5262 67.1213L61.2742 67.1818C60.6004 67.3505 59.9316 67.4883 59.2633 67.6211C57.9282 67.877 56.5982 68.0794 55.2734 68.2691C55.2631 68.2839 55.2532 68.2976 55.2399 68.3131Z" fill="#FFE852"/>
</g>
</svg>
