<svg width="90" height="90" viewBox="0 0 90 90" fill="none" xmlns="http://www.w3.org/2000/svg">
<g opacity="0.6">
<path d="M38.1172 47.1399L39.1152 47.7002C39.4491 47.8851 39.7977 48.0428 40.1383 48.2159L40.652 48.4705C40.8248 48.552 41.0022 48.6235 41.1771 48.7005L42.2311 49.1541C42.9501 49.4132 43.6585 49.7084 44.3939 49.9185L44.9413 50.0902C45.1235 50.1488 45.3061 50.206 45.4921 50.249L46.6027 50.532C46.7871 50.5839 46.9747 50.6174 47.1619 50.6537L47.7233 50.7635L48.2849 50.8738C48.4722 50.91 48.6616 50.9272 48.8498 50.955C49.227 51.0041 49.604 51.0602 49.9818 51.1046L51.1172 51.1854C51.4856 51.2157 51.8554 51.2259 52.2249 51.216C52.5907 51.2099 52.9572 51.1854 53.3229 51.1492C54.0553 51.0727 54.7808 50.9398 55.4927 50.7516C56.9907 50.3708 58.3947 49.6869 59.6179 48.742C60.1989 48.2827 60.7076 47.7387 61.1269 47.1283C61.5287 46.5329 61.8173 45.8687 61.9784 45.1688C62.0032 45.0727 62.0231 44.9754 62.0381 44.8772L62.0853 44.5826L62.0905 44.5503C62.1231 44.3466 62.2132 44.1564 62.35 44.002C62.4869 43.8476 62.6649 43.7353 62.8633 43.6785C63.0616 43.6216 63.272 43.6224 63.4699 43.6809C63.6678 43.7393 63.845 43.8529 63.9806 44.0084C64.9076 45.071 66.2831 45.7126 67.7462 45.8824C69.2306 46.0516 70.7324 45.7914 72.0733 45.1325C72.7286 44.8114 73.3284 44.3878 73.8502 43.8776C74.1077 43.6239 74.3403 43.346 74.5448 43.0478L74.7087 42.8271C74.7593 42.7506 74.8027 42.6689 74.8503 42.5903C74.9405 42.4299 75.045 42.2782 75.1259 42.1123C75.4597 41.4467 75.7063 40.7408 75.8596 40.0122C76.0065 39.2708 76.0676 38.5149 76.0416 37.7595C75.9836 36.234 75.5858 34.7407 74.8773 33.3885C74.5181 32.7218 74.0912 32.0939 73.6033 31.5147C73.0975 30.935 72.5393 30.4032 71.9358 29.926C69.4891 28.0202 66.3098 27.0181 63.1488 26.9351L63.1425 26.9349C62.8987 26.9285 62.6628 26.8468 62.4672 26.701C62.2716 26.5552 62.1259 26.3525 62.05 26.1206C61.9742 25.8887 61.972 25.6391 62.0436 25.4059C62.1153 25.1727 62.2573 24.9674 62.4502 24.8181C63.0642 24.331 63.4854 23.6418 63.639 22.8732C63.7285 22.4617 63.7638 22.0403 63.7439 21.6196C63.7211 21.1856 63.6494 20.7556 63.5302 20.3377C63.2989 19.5023 62.8651 18.737 62.2672 18.1094L62.1567 17.9976L62.0305 17.8869L61.7798 17.6639L61.5112 17.4602C61.4234 17.3894 61.3313 17.3242 61.2354 17.2649L60.9508 17.0797C60.8531 17.0216 60.7514 16.9689 60.6522 16.9127C60.4514 16.8012 60.2446 16.7009 60.0326 16.6123C58.7276 16.0628 57.2559 15.8257 55.7661 15.7771C55.0156 15.7543 54.2645 15.779 53.5172 15.851C53.1434 15.8634 52.7728 15.9104 52.4009 15.947L51.8467 16.0262C51.7543 16.0377 51.6625 16.0548 51.5721 16.0773C51.4793 16.0869 51.3871 16.1014 51.2959 16.1208C51.1121 16.1527 50.9286 16.186 50.749 16.2319C50.5687 16.2754 50.386 16.3136 50.2068 16.3608C49.8518 16.4609 49.5023 16.5794 49.1597 16.7159C48.4818 16.9719 47.834 17.3012 47.2277 17.6981C47.1534 17.7469 47.0749 17.7915 47.0035 17.8435L46.7929 18.0035C46.6494 18.1048 46.5117 18.2143 46.3806 18.3313L45.9932 18.6818L45.6435 19.062C45.2097 19.5854 44.8592 20.1725 44.6043 20.8028L44.6004 20.8125C44.4898 21.0862 44.2749 21.3048 44.0031 21.4201C43.7313 21.5354 43.4248 21.538 43.151 21.4273C43.0396 21.3817 42.936 21.3188 42.8442 21.2408C42.1811 20.673 41.5053 20.1239 40.8135 19.6007C40.1193 19.082 39.4133 18.5838 38.6908 18.118C37.9652 17.6586 37.2271 17.2248 36.471 16.8353C35.7178 16.451 34.9441 16.1085 34.1533 15.8093C33.3688 15.5213 32.5664 15.2848 31.7511 15.1015C30.9476 14.9284 30.1314 14.8214 29.3105 14.7813C28.4934 14.7524 27.6753 14.7931 26.865 14.9029C26.0609 15.0175 25.2691 15.206 24.4995 15.4658C24.3046 15.5213 24.1236 15.6095 23.9348 15.6789L23.6542 15.789C23.5613 15.8269 23.4733 15.8745 23.3826 15.9165C23.2037 16.005 23.0195 16.0846 22.8443 16.1787L22.3276 16.4748C21.6554 16.8801 21.0332 17.363 20.4737 17.9136C20.3315 18.0465 20.2136 18.2007 20.0813 18.3422L19.8878 18.5587L19.7166 18.7922C19.6081 18.9494 19.4707 19.096 19.3724 19.2529L19.2192 19.4858L19.0789 19.7285C18.7094 20.3963 18.4467 21.1179 18.3002 21.8669C18.183 22.2422 18.0977 22.6268 18.0454 23.0165C17.9853 23.4097 17.9785 23.8092 18.0251 24.2042C18.0901 24.9934 18.2785 25.7675 18.5835 26.4983C19.1986 27.9417 20.298 29.1141 21.6579 29.6727C21.8674 29.7588 22.0458 29.9064 22.1696 30.096C22.2934 30.2857 22.3566 30.5085 22.351 30.7349C22.3454 30.9613 22.2711 31.1806 22.1381 31.3639C22.0051 31.5472 21.8196 31.6858 21.6061 31.7614L21.5424 31.7836C20.9002 32.0088 20.2829 32.2998 19.7006 32.652C19.5578 32.7447 19.4077 32.8253 19.2707 32.9264L18.8554 33.2221L18.4606 33.5434C18.327 33.6479 18.2102 33.7715 18.0836 33.8835C16.97 34.8604 16.1135 36.0961 15.5894 37.4817L15.4209 38.002L15.2954 38.5332C15.2608 38.7103 15.2429 38.8872 15.2136 39.0647C15.1848 39.242 15.1907 39.4238 15.1756 39.6038C15.1561 40.3353 15.248 41.0655 15.4481 41.7694C15.5403 42.0947 15.6495 42.4149 15.7751 42.7288C15.8421 42.8759 15.9096 43.019 15.9716 43.1617C16.0296 43.3069 16.1149 43.4317 16.1812 43.5646C16.3119 43.8332 16.4793 44.0588 16.6179 44.2928C16.6935 44.4043 16.7755 44.5063 16.8502 44.6113C16.9209 44.7151 16.9972 44.8149 17.0788 44.9103C17.5894 45.5265 18.168 46.0829 18.8036 46.569C19.5527 47.0881 19.5498 47.3341 18.6671 47.2409C18.3983 47.1949 18.1338 47.1267 17.8762 47.037C17.7248 46.9786 17.5661 46.9039 17.3934 46.8249C17.3086 46.7831 17.2155 46.7464 17.1295 46.6943L16.8626 46.532C15.9654 45.9652 15.2011 45.2114 14.6219 44.3222C13.7056 42.947 13.1907 41.3438 13.135 39.6923L13.1355 39.0542C13.1519 38.8413 13.1732 38.628 13.1937 38.4149C13.2018 38.3088 13.2169 38.2034 13.2388 38.0994L13.2967 37.7877C13.3173 37.6841 13.3336 37.5794 13.3584 37.477L13.4414 37.1724C13.6554 36.3682 13.9788 35.5972 14.4026 34.881C14.7605 34.2665 15.179 33.6894 15.652 33.1585C15.8777 32.885 16.1386 32.6468 16.3848 32.3942C16.5143 32.2749 16.6494 32.1616 16.7838 32.0481C16.9157 31.9314 17.0561 31.8255 17.1978 31.7218C18.3172 30.8758 19.5776 30.2348 20.9206 29.8285L20.8264 31.5484C19.4172 30.8777 18.246 29.7933 17.469 28.4397C17.2784 28.1133 17.1072 27.7758 16.9564 27.4292C16.878 27.258 16.8135 27.0818 16.7422 26.9081C16.6817 26.7309 16.6166 26.555 16.5623 26.3761C16.3451 25.6625 16.2012 24.9286 16.1328 24.1858C16.0986 23.815 16.093 23.4436 16.0662 23.07C16.0527 22.6945 16.0585 22.3186 16.0835 21.9437C16.102 21.5651 16.1595 21.1893 16.2553 20.8225C16.3429 20.4516 16.452 20.0862 16.5818 19.7279C16.8427 19.0034 17.1982 18.3165 17.6392 17.6851C17.8523 17.3723 18.0858 17.0739 18.3381 16.7917L18.7154 16.3685C18.8488 16.2354 18.9878 16.1081 19.1242 15.9781C20.2188 14.9556 21.4948 14.1466 22.8866 13.5927C24.2533 13.0422 25.6923 12.6916 27.1591 12.5519C27.3409 12.5277 27.5238 12.5176 27.7068 12.5097L28.2555 12.4819C28.6215 12.4729 28.9881 12.4835 29.3543 12.4875C29.7197 12.5165 30.0866 12.5295 30.4509 12.5739L30.9971 12.646L31.2698 12.6834L31.5374 12.7341C32.9603 12.9975 34.3515 13.4106 35.6875 13.9667C37.2908 14.6413 38.8249 15.4698 40.2682 16.4407C41.6792 17.39 43.0237 18.4347 44.2923 19.5673L42.5407 20.0032C42.6466 19.7762 42.7511 19.552 42.8543 19.3306C42.9049 19.22 42.9637 19.1133 43.0301 19.0114L43.2195 18.7028C44.0047 17.4978 45.0521 16.486 46.2836 15.7431L46.5053 15.602L46.734 15.4771L47.1919 15.2284C47.5028 15.0786 47.8151 14.9303 48.1315 14.7979C48.4515 14.6776 48.7669 14.5379 49.0926 14.4405C49.2541 14.3865 49.4166 14.3357 49.5767 14.277C49.7381 14.2234 49.9016 14.1794 50.0642 14.1304C50.7139 13.9386 51.3746 13.7865 52.0428 13.6751C52.3764 13.6231 52.711 13.5759 53.0464 13.5355C53.2136 13.5106 53.383 13.507 53.5513 13.4938C53.7201 13.4807 53.8879 13.4738 54.0553 13.4702C54.728 13.4454 55.4016 13.4556 56.0733 13.5009C56.7532 13.5413 57.4297 13.6267 58.0984 13.7565C58.7787 13.8839 59.4477 14.066 60.0986 14.3012C60.761 14.5436 61.4005 14.8442 62.0099 15.1994C62.6257 15.5705 63.1983 16.0089 63.7171 16.5066C64.2444 17.0304 64.6887 17.6316 65.0347 18.2895C65.7337 19.597 66.0421 21.0779 65.9234 22.5558C65.8579 23.3218 65.6504 24.0688 65.3114 24.7588C64.9577 25.4724 64.4486 26.0978 63.8217 26.589L63.197 24.6958C64.7155 24.7309 66.2241 24.9508 67.6894 25.3506C69.9284 25.9587 72.0113 27.039 73.7982 28.5188C74.6992 29.2757 75.4962 30.1484 76.1683 31.1142C77.1729 32.5915 77.8419 34.2708 78.1283 36.0342C78.4146 37.7976 78.3115 39.6023 77.826 41.3215C77.4807 42.4839 76.9244 43.5728 76.185 44.5338C75.8159 45.0271 75.3896 45.4749 74.915 45.8678C74.4464 46.2598 73.9386 46.6024 73.3996 46.8901C71.651 47.8236 69.6628 48.212 67.6915 48.005C67.198 47.9542 66.7098 47.861 66.2323 47.7264C65.7488 47.5947 65.2789 47.4174 64.8289 47.197C64.3733 46.9764 63.9407 46.7114 63.5372 46.4057C63.1338 46.0954 62.7616 45.7464 62.4258 45.3638L64.1311 44.8472C64.0147 45.6876 63.7666 46.5044 63.396 47.2676C63.0258 48.0188 62.5472 48.7114 61.9755 49.3234C61.4193 49.9222 60.7938 50.4527 60.1123 50.9037C59.4464 51.349 58.7404 51.7312 58.0035 52.0454C56.547 52.6622 55.0057 53.0552 53.4318 53.2112C53.0397 53.2477 52.6466 53.2758 52.252 53.2831C52.0548 53.2882 51.8575 53.2907 51.6598 53.2853C51.46 53.2858 51.2683 53.2731 51.0771 53.2596L49.9261 53.1839C49.7337 53.1763 49.5444 53.145 49.3541 53.1221L48.7837 53.0486C48.0196 52.9701 47.2731 52.7999 46.5205 52.6634C46.1461 52.5872 45.7781 52.4841 45.4068 52.3955C45.0363 52.3031 44.6641 52.2173 44.3019 52.0975L43.2084 51.7621C42.8449 51.6474 42.4909 51.5055 42.132 51.3783C41.4102 51.133 40.7173 50.8146 40.0151 50.5209C38.6254 49.8965 37.281 49.1757 35.9918 48.3639C35.336 47.9755 34.7243 47.5166 34.0985 47.0812C33.7899 46.857 33.4973 46.6099 33.1961 46.3752L32.7476 46.0186C32.6 45.8974 32.4612 45.7647 32.3177 45.6382C30.8588 44.382 29.5855 42.9253 28.5355 41.3116L29.7821 40.9084C29.7883 41.4791 29.7154 42.0479 29.5655 42.5986C29.4157 43.1404 29.1848 43.6566 28.8807 44.1294C28.2872 45.0146 27.4888 45.7436 26.5533 46.2543C24.8619 47.1738 22.9234 47.5362 21.014 47.2899C20.5792 47.2417 20.1573 47.1128 19.7698 46.9098C19.531 46.7612 19.4566 46.6411 19.5207 46.5626C19.6557 46.3949 20.2996 46.4459 21.5299 46.3481C23.1407 46.2316 24.687 45.6673 25.9942 44.7189C26.5917 44.276 27.0793 43.7014 27.419 43.0397C27.5745 42.7251 27.6873 42.3912 27.7545 42.0467C27.8149 41.6948 27.8364 41.3374 27.8185 40.9809C27.8067 40.7092 27.8818 40.4408 28.0328 40.2146C28.1838 39.9884 28.4029 39.8162 28.6583 39.7229C28.9138 39.6296 29.1923 39.6201 29.4536 39.6957C29.7148 39.7714 29.9452 39.9282 30.1113 40.1436L30.1697 40.2204L30.7624 40.9988C31.7539 42.2369 32.8645 43.3747 34.078 44.396C35.3302 45.427 36.6664 46.3515 38.0726 47.16C38.087 47.1528 38.1006 47.1463 38.1172 47.1399Z" fill="#FFE852"/>
<path d="M32.4499 55.9776C32.8777 56.074 33.2987 56.1981 33.7104 56.3491C34.9176 56.8043 36.0283 57.4829 36.9843 58.3494C37.3189 58.6508 37.635 58.9722 37.9308 59.3118C38.2684 59.701 38.5503 60.1351 38.7684 60.6019C38.9172 60.912 39.0309 61.2378 39.1073 61.5731C39.1906 61.9187 39.2294 62.2734 39.2228 62.6287C39.2201 62.8125 39.2057 62.996 39.1795 63.1779C39.1487 63.3644 39.1046 63.5485 39.0477 63.7287C38.9903 63.9124 38.9182 64.0913 38.8323 64.2635C38.7437 64.435 38.6428 64.5998 38.5304 64.7567C38.0959 65.3326 37.5258 65.7922 36.8708 66.0944C36.3007 66.3618 35.6998 66.5575 35.0816 66.6771C33.3327 67.0434 31.5247 67.0204 29.7858 66.6095C29.2067 66.4684 28.6393 66.2832 28.0885 66.0552C27.4675 65.8064 26.885 65.4706 26.3584 65.0579C26.0786 64.8166 25.8299 64.5412 25.6183 64.2384C25.3844 63.9225 25.1961 63.5753 25.0589 63.2071L26.2487 63.9051C25.6558 63.9969 25.0548 64.0249 24.4559 63.9888C23.8611 63.9491 23.2721 63.8481 22.6981 63.6873C22.125 63.5273 21.5706 63.3065 21.0444 63.0287C20.7805 62.8909 20.5246 62.7381 20.2781 62.571L20.0846 62.4392C19.9921 62.3714 19.9048 62.2966 19.8234 62.2157C19.6808 62.0729 19.5544 61.9149 19.4463 61.7445C19.2571 61.4407 19.1108 61.1122 19.0115 60.7684C18.9177 60.4258 18.8739 60.0715 18.8814 59.7164C18.8894 59.367 18.9484 59.0207 19.0564 58.6884C19.1599 58.3603 19.3094 58.0484 19.5005 57.7623C19.8811 57.1953 20.4016 56.7361 21.0116 56.4291C21.1504 56.3584 21.2928 56.295 21.4383 56.2391C21.5757 56.1846 21.7169 56.1358 21.8584 56.0882C22.1478 55.9945 22.444 55.9229 22.7443 55.874C23.2211 55.7905 23.7087 55.7888 24.1861 55.869C24.6671 55.9486 25.1295 56.1161 25.55 56.3629C25.8766 56.5495 26.1533 56.8123 26.3565 57.1289C26.4274 57.2422 26.4832 57.3642 26.5225 57.4919C26.5135 57.5901 26.5115 57.6888 26.5166 57.7873C26.5376 58.1131 26.5993 58.3498 26.3176 58.3408C26.226 58.3331 26.1366 58.3093 26.0532 58.2706C25.995 58.2452 25.9385 58.2161 25.884 58.1834C25.8631 58.1698 25.84 58.1598 25.8158 58.1539L25.7553 58.1322C25.6686 58.099 25.5843 58.0599 25.5029 58.0152C25.4061 57.975 25.312 57.9285 25.2211 57.8762C24.9709 57.7524 24.712 57.6469 24.4465 57.5604C24.176 57.4799 23.8978 57.4283 23.6165 57.4066C23.2773 57.3858 22.937 57.4165 22.607 57.4976C22.4346 57.5388 22.2644 57.5889 22.0971 57.6475C22.0123 57.6758 21.9289 57.712 21.8445 57.7437C21.7621 57.7768 21.7029 57.8114 21.63 57.8437C21.359 57.987 21.124 58.1899 20.9427 58.4371C20.7615 58.6843 20.6386 58.9694 20.5834 59.271C20.5293 59.5595 20.5432 59.8568 20.6242 60.139C20.6637 60.2763 20.7197 60.4082 20.7909 60.532C20.8527 60.649 20.9314 60.7564 21.0244 60.8506C21.056 60.8818 21.0917 60.9087 21.1304 60.9304C21.1397 60.9345 21.1487 60.9393 21.1573 60.9447L21.2152 60.978L21.3307 61.0446C21.4065 61.0906 21.4866 61.1299 21.5658 61.17C21.6446 61.2109 21.7238 61.2505 21.8059 61.2849C22.1284 61.4316 22.4636 61.5484 22.8074 61.6336C23.1881 61.7253 23.5756 61.7857 23.9661 61.8143C24.3541 61.8449 24.7355 61.8559 25.1064 61.8755C25.3756 61.8882 25.6454 61.8801 25.9133 61.8513L26.0049 61.8431C26.2221 61.824 26.4395 61.878 26.6225 61.9966C26.8055 62.1151 26.9436 62.2914 27.015 62.4974L27.0605 62.6294C27.0817 62.6719 27.0963 62.7168 27.1204 62.7594C27.1645 62.8501 27.223 62.9332 27.2936 63.0054C27.3288 63.0452 27.3664 63.0829 27.406 63.1183C27.4455 63.1567 27.487 63.1929 27.5304 63.2267C27.5738 63.2636 27.6193 63.2978 27.6667 63.3293C27.7085 63.3677 27.7587 63.4013 27.8052 63.4373C28.2328 63.7342 28.7028 63.9648 29.1992 64.1213C30.2564 64.4777 31.3581 64.6851 32.4725 64.7376C32.9401 64.7627 33.409 64.7506 33.8748 64.7015C34.3353 64.6545 34.7914 64.5707 35.2386 64.451C35.6374 64.3475 36.0179 64.1835 36.367 63.9647C36.6508 63.79 36.8798 63.539 37.0277 63.2404C37.2785 62.7519 37.2348 62.0231 36.944 61.3877C36.9105 61.307 36.8652 61.2319 36.8268 61.1532C36.7788 61.0808 36.7401 61.0008 36.6871 60.9322C36.6391 60.8602 36.5868 60.7912 36.5306 60.7254C36.4824 60.663 36.4071 60.5806 36.337 60.5067C36.0512 60.2028 35.7449 59.9187 35.4203 59.6564C34.1272 58.5953 32.5337 57.8913 30.8537 57.8243C29.5166 57.7757 28.2365 57.9008 26.9144 57.9476C26.8238 57.9621 26.731 57.9519 26.6459 57.9179C26.5999 57.9034 26.5984 57.8447 26.6168 57.7837C26.6214 57.7676 26.6274 57.7505 26.6344 57.7326L26.6455 57.7049L26.6516 57.6906L26.6547 57.6834L26.6563 57.6798L26.6571 57.678L26.6575 57.6771L26.6577 57.6766L26.6598 57.6645C26.6778 57.6183 26.6982 57.565 26.7166 57.5061C26.7359 57.445 26.7505 57.3825 26.7602 57.3191C26.7715 57.2589 26.7686 57.181 26.7775 57.1536C26.7633 57.1361 26.8343 57.0935 26.8842 57.0559L27.0423 56.9417C27.1493 56.8669 27.2544 56.7845 27.3674 56.7144C27.4779 56.6408 27.5948 56.577 27.7166 56.524C27.8351 56.464 27.9607 56.4182 28.0848 56.3667C28.3322 56.2614 28.5922 56.1808 28.8536 56.0988C29.1193 56.0254 29.3888 55.9663 29.6609 55.9219C30.1176 55.8477 30.581 55.823 31.0431 55.8481C31.5098 55.8758 31.9744 55.9306 32.4347 56.0121L32.4499 55.9776Z" fill="#FFE852"/>
<path d="M15.2313 70.9758C15.9765 70.9383 16.7232 71.0147 17.4453 71.2025C17.8177 71.2963 18.1777 71.4172 18.5474 71.5254C19.0841 71.6733 19.5916 71.9118 20.0479 72.2308C20.3169 72.423 20.5535 72.657 20.7487 72.9238C20.9744 73.235 21.1245 73.5945 21.187 73.9739C21.2493 74.3644 21.2146 74.7643 21.0862 75.1383C20.9708 75.4734 20.7947 75.7844 20.5668 76.0558C20.1709 76.5184 19.6727 76.8823 19.1116 77.1187C18.8009 77.254 18.4754 77.3527 18.1418 77.4127C17.9795 77.4449 17.8178 77.4668 17.6568 77.485C17.4785 77.5062 17.2989 77.5149 17.1193 77.5113C16.9431 77.5071 16.7654 77.494 16.6035 77.4758C16.4567 77.4585 16.3101 77.4383 16.1637 77.4153C15.8705 77.3696 15.5785 77.3073 15.2856 77.2384C14.6802 77.1023 14.0938 76.8925 13.5396 76.6135C13.3937 76.5408 13.2517 76.4607 13.1139 76.3737C13.0441 76.329 12.9739 76.2867 12.9059 76.2364L12.8035 76.1631L12.7524 76.1263L12.6874 76.0726C12.3326 75.7853 12.0727 75.3977 11.9414 74.9605C11.8684 74.7051 11.8489 74.4375 11.8842 74.1743C11.9195 73.9111 12.0087 73.658 12.1464 73.4309C12.2476 73.2482 12.4131 73.1095 12.6108 73.0419C12.6915 73.0172 12.7759 73.0068 12.8602 73.011C12.9408 73.018 13.0198 73.037 13.0946 73.0675C13.188 73.1112 13.2718 73.1731 13.3411 73.2494C13.4104 73.3258 13.4637 73.4152 13.4981 73.5124C13.5619 73.6493 13.5987 73.7972 13.6067 73.948C13.6011 74.0745 13.5881 74.2005 13.5677 74.3255C13.5595 74.3975 13.5666 74.4705 13.5886 74.5396C13.6105 74.6087 13.6467 74.6725 13.6949 74.7267C13.7075 74.7405 13.7231 74.752 13.7363 74.7658C13.7434 74.7735 13.751 74.7807 13.7589 74.7875L13.7989 74.8168C13.8517 74.8575 13.9065 74.8954 13.9631 74.9305C14.0785 75.0047 14.1994 75.0701 14.3247 75.1259C14.8627 75.3552 15.4431 75.4683 16.0278 75.4578C16.1938 75.4556 16.3637 75.442 16.5311 75.4354C16.6144 75.4336 16.698 75.4304 16.7795 75.436C16.8451 75.4391 16.9104 75.4463 16.975 75.4576C17.0711 75.4751 17.1688 75.4823 17.2664 75.479C17.3086 75.4788 17.3715 75.4693 17.4272 75.4623C17.484 75.4559 17.5404 75.4463 17.5961 75.4336C17.8118 75.3871 18.0215 75.3164 18.2213 75.223C18.5474 75.076 18.8334 74.8528 19.0552 74.5721C19.1059 74.5117 19.141 74.4397 19.1573 74.3625C19.1704 74.3042 19.1663 74.2434 19.1455 74.1874C19.0532 73.9926 18.9063 73.8289 18.7227 73.7161C18.2056 73.3815 17.624 73.1588 17.0156 73.0625C16.6957 73.0037 16.3713 72.9723 16.0461 72.9688C15.7255 72.9698 15.4058 73.0006 15.0909 73.0609C14.9675 73.0883 14.8407 73.1019 14.7169 73.1223C14.6541 73.1304 14.5897 73.1349 14.5241 73.1377C14.4582 73.1444 14.3919 73.1469 14.3257 73.145C14.1863 73.1392 14.0477 73.1398 13.8977 73.1309L13.4235 73.0957C13.3471 73.093 13.2724 73.0718 13.206 73.0338C13.1395 72.9958 13.0834 72.9422 13.0423 72.8776C13.0012 72.8131 12.9765 72.7395 12.9703 72.6632C12.964 72.5869 12.9765 72.5103 13.0065 72.4399L13.0808 72.2502C13.1107 72.1951 13.147 72.1436 13.1889 72.0969C13.2669 72.0001 13.3497 71.9036 13.437 71.809C13.528 71.722 13.6231 71.6364 13.7223 71.5525C13.8233 71.4754 13.9307 71.4073 14.0434 71.3488C14.4167 71.166 14.8199 71.0523 15.2337 71.013L15.2313 70.9758Z" fill="#FFE852"/>
</g>
</svg>
