<svg width="43" height="56" viewBox="0 0 43 56" fill="none" xmlns="http://www.w3.org/2000/svg">
<path opacity="0.6" d="M13.6001 55.5838C13.4302 55.6293 13.2512 55.6409 13.0717 55.6234C12.4698 55.5517 11.9862 55.1062 11.8587 54.5215C9.79298 44.7733 7.63703 36.6728 5.56067 28.8422C3.8197 22.2904 2.17518 16.0987 0.636884 9.21592C0.54127 8.80471 0.643708 8.39869 0.872231 8.08264C0.962296 7.54888 1.37601 7.08129 1.91653 6.95102C6.05625 5.90003 10.7401 4.73235 15.4154 3.5597C20.1196 2.38657 24.8221 1.20663 28.9822 0.15018C29.7316 -0.0433337 30.4934 0.407757 30.6868 1.15677L42.3644 45.4448C42.5191 46.0222 42.2886 46.6299 41.7959 46.9658C41.3032 47.3017 40.651 47.2871 40.1707 46.9353C34.68 42.9172 29.0249 38.9649 23.3368 35.1889C20.5318 41.7648 17.5651 48.3622 14.5039 54.8247C14.3226 55.2082 13.9875 55.48 13.5933 55.5856L13.6001 55.5838ZM3.57744 9.4254C5.04961 15.9254 6.62314 21.8523 8.28585 28.112C10.0814 34.8675 11.9298 41.8201 13.7281 49.8635C16.3885 44.1345 18.9673 38.3181 21.4102 32.5382C21.5761 32.1516 21.8989 31.8612 22.2962 31.7402C22.704 31.631 23.1332 31.6834 23.4783 31.9112C28.5808 35.269 33.6636 38.7704 38.6417 42.3434L28.3252 3.21653C24.5049 4.18193 20.3072 5.23391 16.1008 6.28091C11.7857 7.35705 7.4657 8.44179 3.57064 9.42722L3.57744 9.4254Z" fill="#FFE852"/>
</svg>
