<svg width="68" height="41" viewBox="0 0 68 41" fill="none" xmlns="http://www.w3.org/2000/svg">
<path opacity="0.6" d="M64.1858 20.3234L62.1129 19.1264C62.4139 18.5173 62.5533 17.8412 62.5176 17.1628C62.4819 16.4844 62.2724 15.8265 61.9091 15.2525C61.5459 14.6784 61.0411 14.2074 60.4433 13.8847C59.8455 13.5619 59.1748 13.3984 58.4955 13.4096L56.647 6.51099C56.5928 6.32936 56.4903 6.16586 56.3504 6.03792C56.2106 5.90999 56.0386 5.82242 55.8529 5.78455L25.4423 0.474448C25.2991 0.449881 25.1522 0.456635 25.0119 0.494247C24.8715 0.531858 24.7409 0.599433 24.6292 0.692322L0.947903 20.4963C0.801606 20.6186 0.693324 20.7802 0.635819 20.962C0.578315 21.1438 0.573985 21.3383 0.62334 21.5225C0.672696 21.7067 0.773679 21.8729 0.914387 22.0016C1.0551 22.1303 1.22967 22.2161 1.41752 22.2489L14.9078 24.6045L18.0979 36.5104C18.1472 36.6943 18.2478 36.8603 18.3881 36.9889C18.5284 37.1175 18.7025 37.2034 18.89 37.2364L35.1906 40.1156C35.3345 40.141 35.4822 40.1345 35.6233 40.0967C35.7644 40.0589 35.8956 39.9907 36.0075 39.8967L48.6846 29.253C48.8304 29.1306 48.9383 28.9692 48.9955 28.7877C49.0527 28.6061 49.0569 28.4121 49.0076 28.2282L45.8174 16.3223L55.1208 8.54223L56.5637 13.9273C55.9698 14.2571 55.4707 14.7342 55.1144 15.3125C54.7581 15.8909 54.5564 16.5512 54.5289 17.23C54.5013 17.9087 54.6487 18.5832 54.957 19.1885C55.2653 19.7939 55.724 20.3098 56.2892 20.6868L55.0926 22.76C55.0269 22.8737 54.9843 22.9992 54.9671 23.1294C54.9499 23.2596 54.9586 23.3919 54.9926 23.5187L57.5808 33.178C57.6147 33.3048 57.6734 33.4238 57.7533 33.528C57.8332 33.6322 57.9329 33.7196 58.0467 33.7853C58.1604 33.8509 58.2859 33.8935 58.4162 33.9107C58.5464 33.9278 58.6787 33.9191 58.8055 33.8851L66.5329 31.8145C66.6598 31.7806 66.7787 31.7219 66.8829 31.642C66.9871 31.5621 67.0746 31.4624 67.1402 31.3487C67.2059 31.2349 67.2485 31.1094 67.2656 30.9791C67.2828 30.8489 67.2741 30.7166 67.24 30.5898L64.6518 20.9305C64.6179 20.8037 64.5592 20.6848 64.4793 20.5806C64.3993 20.4764 64.2996 20.3891 64.1858 20.3234ZM25.5559 2.52467L51.0482 6.97591L28.3764 13.0508C28.1202 13.1195 27.9018 13.2871 27.7692 13.5167C27.6366 13.7464 27.6006 14.0194 27.6693 14.2756C27.7379 14.5317 27.9055 14.7502 28.1352 14.8828C28.3649 15.0154 28.6378 15.0513 28.894 14.9827L51.5659 8.90776L31.7145 25.5088L3.88287 20.6491L25.5559 2.52467ZM35.0789 38.0649L19.865 35.3778L18.8833 31.714L33.6377 34.3201C33.7816 34.3455 33.9293 34.339 34.0704 34.3012C34.2115 34.2634 34.3427 34.1951 34.4546 34.1012L45.9292 24.4671L46.9109 28.1308L35.0789 38.0649ZM45.358 22.3351L33.526 32.2693L18.312 29.582L17.0799 24.9838L31.8281 27.559C31.9713 27.5839 32.1182 27.5773 32.2587 27.5397C32.3991 27.5021 32.5296 27.4343 32.6412 27.3412L44.1259 17.7369L45.358 22.3351ZM58.0105 15.4631C58.3926 15.3608 58.7964 15.374 59.171 15.5011C59.5456 15.6283 59.874 15.8636 60.1148 16.1775C60.3556 16.4913 60.498 16.8695 60.5238 17.2642C60.5497 17.6589 60.458 18.0524 60.2602 18.395C60.0624 18.7376 59.7675 19.0138 59.4127 19.1887C59.0579 19.3637 58.6593 19.4295 58.2671 19.3779C57.8749 19.3262 57.5068 19.1595 57.2094 18.8987C56.912 18.6379 56.6987 18.2947 56.5963 17.9126C56.4596 17.4003 56.5318 16.8547 56.7969 16.3955C57.062 15.9363 57.4985 15.601 58.0105 15.4631ZM65.0494 30.1415L59.2538 31.6944L57.0316 23.401L58.2061 21.3662C59.1242 21.4618 60.0453 21.215 60.7927 20.6731L62.8272 21.8481L65.0494 30.1415Z" fill="#FFE852"/>
</svg>
