<svg width="55" height="55" viewBox="0 0 55 55" fill="none" xmlns="http://www.w3.org/2000/svg">
<path opacity="0.6" d="M42.4708 51.1469L11.7023 20.3785L11.3594 20.7213C11.251 20.8311 11.122 20.9184 10.9797 20.9781C10.8375 21.0378 10.6848 21.0688 10.5305 21.0693C10.3763 21.0697 10.2234 21.0397 10.0808 20.9809C9.93815 20.9221 9.80856 20.8356 9.69947 20.7265C9.59039 20.6174 9.50395 20.4878 9.44514 20.3452C9.38633 20.2026 9.3563 20.0497 9.35679 19.8955C9.35728 19.7412 9.38827 19.5885 9.44799 19.4463C9.5077 19.304 9.59496 19.175 9.70473 19.0666L10.0476 18.7237L7.02143 15.6976L6.67856 16.0405C6.57015 16.1503 6.44111 16.2375 6.29885 16.2972C6.1566 16.3569 6.00394 16.3879 5.84967 16.3884C5.69539 16.3889 5.54254 16.3588 5.39991 16.3C5.25729 16.2412 5.1277 16.1548 5.01861 16.0457C4.90952 15.9366 4.82309 15.807 4.76427 15.6644C4.70546 15.5217 4.67544 15.3689 4.67593 15.2146C4.67641 15.0603 4.70741 14.9077 4.76712 14.7654C4.82684 14.6232 4.91409 14.4941 5.02387 14.3857L5.36674 14.0428L1.79431 10.4705C0.644859 9.31976 -0.000579834 7.75966 -0.00012207 6.13318C0.000331879 4.5067 0.646652 2.94697 1.79675 1.79687C2.94684 0.646776 4.50657 0.000456978 6.13305 2.42236e-07C7.75954 -0.000456494 9.31963 0.644987 10.4704 1.79444L14.0427 5.3668L14.3856 5.02393C14.6055 4.80678 14.9024 4.68545 15.2114 4.68643C15.5205 4.68741 15.8166 4.81062 16.0351 5.02915C16.2537 5.24769 16.3769 5.54381 16.3778 5.85285C16.3788 6.1619 16.2574 6.45878 16.0403 6.67868L15.6974 7.02156L18.7236 10.0477L19.0665 9.70479C19.2864 9.48764 19.5833 9.36631 19.8923 9.36729C20.2014 9.36827 20.4975 9.49148 20.716 9.71002C20.9345 9.92855 21.0577 10.2247 21.0587 10.5337C21.0596 10.8428 20.9383 11.1396 20.7211 11.3595L20.3783 11.7024L51.1468 42.4709C51.261 42.6105 51.3563 42.7646 51.4302 42.9292L54.9396 53.4599C54.9984 53.6358 55.0145 53.8231 54.9866 54.0064C54.9587 54.1897 54.8876 54.3638 54.7793 54.5142C54.6709 54.6647 54.5283 54.7872 54.3633 54.8718C54.1982 54.9563 54.0155 55.0004 53.8301 55.0004C53.7042 55.0007 53.5791 54.9802 53.4598 54.9398L42.929 51.4304C42.7661 51.3533 42.6124 51.2582 42.4708 51.1469ZM8.81561 3.4492C8.08951 2.76832 7.13174 2.38892 6.13635 2.38785C5.14096 2.38679 4.18239 2.76415 3.45485 3.44348C2.74244 4.15553 2.3417 5.12118 2.34063 6.12842C2.33956 7.13567 2.73824 8.10217 3.44913 8.81573L7.02143 12.3881L12.388 7.02156L8.81561 3.4492ZM14.0427 8.67631L8.67619 14.0428L11.7023 17.069L17.0688 11.7024L14.0427 8.67631ZM13.357 18.7237L42.5008 47.8675C42.8927 46.607 43.5884 45.4621 44.5266 44.5336C45.4569 43.5926 46.6042 42.8947 47.8675 42.5011L18.7236 13.3572L13.357 18.7237ZM50.9086 48.7697C50.0206 49.2831 49.283 50.0207 48.7696 50.9087L51.9776 51.9777L50.9086 48.7697ZM46.5185 50.1586C47.3105 48.5866 48.5865 47.3107 50.1584 46.5187L49.4943 44.5257C48.237 44.6998 47.0724 45.2843 46.1814 46.1884C45.2805 47.0781 44.6985 48.2402 44.5255 49.4945L46.5185 50.1586Z" fill="#FFE852"/>
</svg>
