<svg width="80" height="48" viewBox="0 0 80 48" fill="none" xmlns="http://www.w3.org/2000/svg">
<path opacity="0.6" d="M66.5467 0.365037C66.4731 0.384489 66.4011 0.409169 66.3311 0.438889L65.6024 0.749942L65.598 0.753047L65.593 0.754067L45.4539 9.5088C45.0632 9.06175 44.5542 8.73289 43.9845 8.55945C43.4149 8.38601 42.8073 8.37494 42.2307 8.52749L29.8669 11.8404C29.2912 11.9966 28.7706 12.3099 28.364 12.745C27.9574 13.18 27.681 13.7193 27.5662 14.3018L5.73762 16.7907L4.95103 16.8856C4.87554 16.8949 4.80081 16.9095 4.72741 16.9295C0.321875 18.1099 -1.22994 25.606 1.11755 34.3669C3.46503 43.1278 8.55697 48.8437 12.9625 47.6632C13.036 47.6438 13.1081 47.6191 13.1781 47.5894L33.7393 38.6563L35.011 43.4024C35.0783 43.6535 35.2065 43.8842 35.3844 44.0744C35.5622 44.2645 35.7843 44.4082 36.0312 44.493C36.2781 44.5778 36.5422 44.601 36.8006 44.5606C37.0589 44.5203 37.3036 44.4176 37.5131 44.2615L43.9039 39.4996L51.8194 40.4282C52.0789 40.4585 52.3422 40.4251 52.5861 40.3309C52.83 40.2367 53.0471 40.0845 53.2186 39.8876C53.39 39.6908 53.5104 39.4553 53.5694 39.2017C53.6284 38.9481 53.624 38.6842 53.5568 38.433L52.2852 33.6874L73.7613 31.2388L73.7684 31.2374L73.7716 31.2377C73.9585 31.215 74.6037 31.1465 74.7818 31.0988C79.1873 29.9184 80.7391 22.4223 78.3916 13.6614C76.0441 4.90045 70.9522 -0.815422 66.5467 0.365037ZM12.6521 44.3526L12.0514 44.6101C10.1266 44.973 6.18887 40.9295 4.20851 33.5387C2.22815 26.1479 3.61656 20.6772 5.46496 20.0292L28.0571 17.4499L32.9064 35.5479L12.6521 44.3526ZM49.8578 36.9923L43.6522 36.2633C43.2443 36.2161 42.8333 36.3262 42.5037 36.5711L37.494 40.3051L30.6904 14.9138L43.0542 11.6009L49.8578 36.9923ZM51.4522 30.5786L46.6028 12.4803L62.3379 5.63926C61.5392 9.68454 61.7448 13.8599 62.9368 17.8025C63.8758 21.8129 65.7854 25.5316 68.4998 28.6356L51.4522 30.5786ZM72.1823 27.5795C70.2717 26.3878 67.9701 23.0658 66.4843 18.4989L67.985 18.0968C68.3949 17.9874 68.8311 18.0442 69.1981 18.2547C69.565 18.4651 69.8327 18.8121 69.9422 19.2194L72.1823 27.5795ZM75.2636 26.7153L73.0332 18.3912C72.7044 17.1693 71.9015 16.1285 70.8007 15.4971C69.6999 14.8658 68.3911 14.6954 67.1615 15.0235L65.6608 15.4256C64.4107 9.53395 65.2534 4.69842 66.9923 3.61767L67.4577 3.41818C69.3825 3.05522 73.3203 7.09878 75.3007 14.4896C76.8013 20.0902 76.3662 24.5829 75.2636 26.7153Z" fill="#FFE852"/>
</svg>
